<svg width="60" height="60" viewBox="0 0 60 60" fill="none" xmlns="http://www.w3.org/2000/svg">
<rect width="60" height="60" fill="#CC0000"/>
<g clip-path="url(#clip0_2525_4511)">
<path d="M47.7427 23.2442V18.4372H39.9774L38.9842 23.3349H41.7833L40.8804 27.8698H38.0813L37.088 32.7674C36.9977 33.1302 36.9977 33.3116 36.9074 33.5837C36.6366 35.1256 37.3589 35.0349 39.4357 35.0349L38.4424 39.8419H34.8307C31.3995 39.8419 28.6005 39.8419 29.3228 36.214C29.4131 35.6698 29.5937 35.1256 29.684 34.5814L30.9481 27.8698H28.2393L29.1422 23.3349H31.851L32.8442 18.4372H30.316V11H21.1061V26.0558H10C10.2709 29.9558 13.702 30.5 14.9661 33.3116C15.8691 35.2163 16.5914 38.5721 19.1196 38.5721C21.0158 38.5721 21.0158 36.0326 23.544 36.0326C25.9819 36.0326 27.1558 40.7488 29.3228 44.6488C30.9481 47.7326 33.7472 49.7279 36.1851 49.9093C38.2619 50.0907 39.2551 49.3651 39.2551 49.3651C38.7133 48.2767 38.4424 47.0977 38.4424 45.4651C38.4424 42.9256 40.3386 40.4767 42.5959 38.7535C45.6659 36.486 48.9165 35.6698 50 35.3977V27.5977C50 27.6884 47.7427 26.5093 47.7427 23.2442ZM35.1016 34.9442L38.3521 18.4372H34.5598L31.3093 34.9442H35.1016ZM39.3454 13.1767H35.553L34.8307 16.8047H38.623L39.3454 13.1767Z" fill="white"/>
</g>
<defs>
<clipPath id="clip0_2525_4511">
<rect width="40" height="39" fill="white" transform="translate(10 11)"/>
</clipPath>
</defs>
</svg>
