<svg width="60" height="60" viewBox="0 0 60 60" fill="none" xmlns="http://www.w3.org/2000/svg">
<rect width="60" height="60" fill="#0067B9"/>
<g clip-path="url(#clip0_1403_8806)">
<path d="M10.1223 24.1189H21.2301V35.3033H10.1223V24.1189ZM12.4084 25.86V33.8844L19.3731 29.7829L12.4084 25.86ZM24.9686 35.1846H23.0518V30.2H24.9802C26.4091 30.2 27.2662 31.3326 27.2662 32.7753C27.2662 34.2185 26.5045 35.1846 24.9686 35.1846ZM26.6708 29.0679L26.2905 27.9588H24.4566L24.123 29.0679H23.1231L24.8018 24.0717H25.8137L27.6948 29.0679H26.6708ZM24.8852 31.0468H24.0993V34.4092H24.945C26.0639 34.4092 26.2307 33.4551 26.2187 32.728C26.2187 32.1554 25.9448 31.0468 24.8852 31.0468ZM25.9448 26.9569L25.3138 25.1208L24.7546 26.9454L24.7184 27.2548H25.9569C25.9569 27.0883 25.9689 27.0525 25.9448 26.9569ZM27.6239 35.1846V30.2H31.2906V31.0348H28.6233V32.096H30.9806V33.0023H28.6354V34.3378H31.374V35.1846H27.6239ZM31.0761 29.0679L28.8856 25.6929V29.0679H27.8857V24.0717H28.9097L31.0163 27.3982V24.0717H32.0166V29.0679H31.0761ZM34.2072 35.1725H33.2547L31.6122 30.4626V30.2H32.6116L33.7309 33.8486L34.8263 30.2121H35.8024V30.4743L34.2072 35.1725ZM35.791 29.0679L35.4095 27.9588H33.5762L33.2431 29.0679H32.2428L33.9215 24.0717H34.9337L36.8144 29.0679H35.791ZM35.0761 26.9805L34.4453 25.0971L33.8138 26.9805V27.2548H35.1001C35.1001 27.0883 35.1001 27.0641 35.0761 26.9805ZM36.1121 30.2121H37.1716V35.1725H36.1121V30.2121ZM37.0285 29.0679V24.0717H38.0172V28.221H40.243V29.0679H37.0285ZM39.8028 35.3033C37.0768 35.3632 36.5998 30.0929 39.8145 30.1286C41.6005 30.1286 41.91 31.619 41.9813 31.8454H40.993C40.8383 31.536 40.4333 30.9397 39.934 30.9035C38.1719 30.7847 38.1719 34.5164 39.934 34.5164C40.7791 34.5164 40.9816 33.67 41.0287 33.5748H41.9934C41.9934 33.5865 41.8738 35.2797 39.8028 35.3033ZM42.541 29.1509C39.3382 29.1509 39.4577 23.976 42.5766 24.0002C45.5888 24.0238 45.6723 29.1509 42.541 29.1509ZM42.5053 28.3166C44.3503 28.3281 44.3503 24.8702 42.541 24.8466C40.7435 24.8345 40.6836 28.3045 42.5053 28.3166ZM42.1719 35.1846V30.2H45.7074V31.1068H43.1245V32.1317H45.4099V33.0259H43.1359V34.3378H45.827V35.1846H42.1719ZM48.8867 28.9481V28.4716C48.7798 28.5666 48.303 29.175 47.4101 29.1509C44.3629 29.0794 44.3503 24.0717 47.5534 24.0118C48.3265 24.0118 48.9697 24.5009 49.2199 24.8466C49.5177 25.2401 49.5415 25.5741 49.5534 25.6577H48.708C48.5174 25.3472 48.2196 24.8229 47.5177 24.8229C45.6601 24.7993 45.5415 28.3166 47.5056 28.3518C48.3748 28.3754 48.8149 27.4697 48.8149 27.4581V27.1954H47.6247V26.4205H49.672V28.9481H48.8867ZM47.9577 35.3154C45.8505 35.3154 45.8743 33.6937 45.8743 33.6937H46.8268C46.8268 33.6937 46.7551 34.4807 47.8155 34.5522C48.0775 34.5642 48.9345 34.4571 48.9345 33.8607C48.9345 33.1694 48.0649 33.2045 47.5177 33.0501C46.9694 32.9066 45.9339 32.6681 45.9339 31.7025C45.9339 30.8561 46.6244 30.1286 47.9577 30.1286C49.744 30.1407 49.7319 31.5239 49.744 31.6074H48.8275C48.7672 31.4042 48.708 30.9156 47.9106 30.8919C47.5177 30.8919 46.9222 31.0232 46.9222 31.4877C46.9222 32.0724 47.5886 32.1554 48.2914 32.2625C49.3511 32.4659 49.9584 32.788 49.9222 33.7651C49.8987 34.6236 49.1365 35.3154 47.9577 35.3154Z" fill="white"/>
</g>
<defs>
<clipPath id="clip0_1403_8806">
<rect width="40" height="12" fill="white" transform="translate(10 24)"/>
</clipPath>
</defs>
</svg>
