<svg width="60" height="60" viewBox="0 0 60 60" fill="none" xmlns="http://www.w3.org/2000/svg">
<rect width="60" height="60" fill="black"/>
<g clip-path="url(#clip0_150_641)">
<path d="M21.1828 23V31.4437L14.172 23H10V37H14.172V28.5563L21.1828 37L25.3548 30L21.1828 23Z" fill="#FCA600"/>
<path d="M32.9677 37L30.172 32.3625L27.3763 37H22.4301L26.6021 30L22.4301 23H27.3333L30.129 27.6375L32.9677 23H37.871L33.6989 30L37.871 37H32.9677Z" fill="#0EAFE0"/>
<path d="M45.0968 23H39.1613L34.9892 30L39.1613 37V33.8938H46.172C49.0968 33.8938 50 31.4875 50 29.4313V27.7687C50 25.0562 49.0538 23 45.0968 23ZM46.129 28.6437C46.129 29.475 45.7419 30.4375 44.7957 30.4375H39.2043V26.4562H44.4086C45.6559 26.4562 46.129 26.9813 46.129 27.9437V28.6437Z" fill="#69CA00"/>
</g>
<defs>
<clipPath id="clip0_150_641">
<rect width="40" height="14" fill="white" transform="translate(10 23)"/>
</clipPath>
</defs>
</svg>
