<svg width="60" height="60" viewBox="0 0 60 60" fill="none" xmlns="http://www.w3.org/2000/svg">
<rect width="60" height="60" fill="black"/>
<g clip-path="url(#clip0_168_597)">
<path d="M11.5728 30.0626V28.2142H12.497C13.04 28.2142 13.48 28.6282 13.48 29.1382C13.48 29.649 13.04 30.0626 12.497 30.0626H11.5728ZM9.03491 26.4374V33.6138H11.5732V31.8754L13.2073 31.8742C14.8043 31.8742 16.0992 30.657 16.0992 29.1558C16.0992 27.6542 14.8043 26.4374 13.2073 26.4374L9.03491 26.4374Z" fill="white"/>
<path d="M18.4209 26.4374L14.209 33.6138H17.063L18.0941 31.8566H20.4869V33.6138H22.986V26.4374H18.4209ZM20.4869 30.0626H19.1473L20.4869 27.7798V30.0626Z" fill="white"/>
<path d="M37.7795 26.4374L35.2595 30.7318C34.9957 31.1962 34.4748 31.5122 33.8761 31.5122C33.0106 31.5122 32.3093 30.8526 32.3093 30.039C32.3093 29.2258 33.0106 28.5662 33.8761 28.5662C34.5468 28.5662 35.1187 28.9626 35.3425 29.5194L36.6868 27.223C35.9523 26.575 34.9633 26.1774 33.8761 26.1774C32.5599 26.1774 31.3885 26.7594 30.6365 27.6642C30.5016 27.827 30.3799 27.9998 30.2736 28.1814L29.1859 30.039L28.7804 30.7318C28.5165 31.1962 27.9961 31.5122 27.3974 31.5122C26.5319 31.5122 25.8302 30.8526 25.8302 30.039C25.8302 29.2258 26.5319 28.5662 27.3974 28.5662C28.068 28.5662 28.6399 28.9626 28.8633 29.5194L30.208 27.2234C29.4731 26.575 28.4846 26.1774 27.3974 26.1774C25.1285 26.1774 23.2893 27.9062 23.2893 30.039C23.2893 32.1718 25.1285 33.9006 27.3974 33.9006C28.7131 33.9006 29.8846 33.319 30.6365 32.4138C31.3885 33.319 32.5599 33.9006 33.8761 33.9006C35.4459 33.9006 36.8097 33.073 37.5012 31.8566H39.8455V33.6138H42.3446V26.4374H37.7795ZM39.8702 30.0626H38.5306L39.8702 27.7798V30.0626Z" fill="white"/>
<path d="M45.6922 30.0625V28.2141H46.6164C47.1594 28.2141 47.5994 28.6281 47.5994 29.1381C47.5994 29.6489 47.1594 30.0625 46.6164 30.0625H45.6922ZM50.4066 33.6137L48.9211 31.0861C49.6088 30.6201 50.056 29.8609 50.056 29.0033C50.056 27.5861 48.8339 26.4373 47.3266 26.4373H43.1543V33.6137H45.6926V31.8753L46.5296 31.8746L47.5517 33.6138L50.4066 33.6137Z" fill="white"/>
</g>
<defs>
<clipPath id="clip0_168_597">
<rect width="42" height="8" fill="white" transform="translate(9 26)"/>
</clipPath>
</defs>
</svg>
