<svg width="60" height="60" viewBox="0 0 60 60" fill="none" xmlns="http://www.w3.org/2000/svg">
<rect width="60" height="60" fill="white"/>
<g clip-path="url(#clip0_150_928)">
<mask id="mask0_150_928" style="mask-type:luminance" maskUnits="userSpaceOnUse" x="8" y="9" width="173" height="42">
<path d="M8.99045 9.82251H180.912V50.0957H8.99045V9.82251Z" fill="white"/>
</mask>
<g mask="url(#mask0_150_928)">
<path d="M50.6522 32.617C49.3009 42.334 40.5478 49.8346 29.9416 49.8346C18.4009 49.8346 9.04514 40.9535 9.04514 29.9975C9.04514 19.0416 18.4009 10.1604 29.9416 10.1604C32.0655 10.1604 34.1124 10.4648 36.0425 11.0229L50.6522 32.617Z" fill="white"/>
<path fill-rule="evenodd" clip-rule="evenodd" d="M50.9841 31.5835C50.9071 33.968 50.5407 34.47 49.8266 36.1256L49.8239 36.1897C49.8239 36.1897 42.8443 25.0548 39.1248 19.183C38.6071 18.3686 37.0567 16.6463 35.3336 19.1109C33.7673 21.3512 31.7682 24.179 31.7682 24.179L44.4531 44.3419C40.6009 47.9547 35.3974 50.0962 29.5699 49.9921C23.562 49.8879 18.2947 47.4767 14.5487 43.5248C14.5487 43.5248 19.9699 35.9841 20.0283 35.8986C20.9496 34.4967 19.7363 33.1109 19.7363 33.1109L15.6956 26.7477L9.73276 35.1643C9.23895 33.4046 8.98939 31.5515 9.02391 29.6423C9.21506 18.6062 18.7248 9.82384 30.2628 10.0241C33.462 10.0802 35.9496 10.7157 38.6389 11.9921L50.9841 31.5835ZM24.9319 19.1269C24.4142 18.3125 22.8637 16.5902 21.1407 19.0575C19.5743 21.2978 17.5752 24.1229 17.5752 24.1229L28.3195 41.1296C28.3195 41.1296 29.8407 44.3926 31.9062 41.5675C32.2513 41.0949 35.6283 36.1363 35.6283 36.1363C35.6283 36.1363 28.6513 24.9987 24.9319 19.1269Z" fill="#EE2223"/>
</g>
</g>
<defs>
<clipPath id="clip0_150_928">
<rect width="42" height="40" fill="white" transform="translate(9 10)"/>
</clipPath>
</defs>
</svg>
