<svg width="60" height="60" viewBox="0 0 60 60" fill="none" xmlns="http://www.w3.org/2000/svg">
<rect width="60" height="60" fill="black"/>
<g clip-path="url(#clip0_150_763)">
<path d="M38.7862 39.094L39.5177 38.6242L46.7844 33.036C49.2521 30.7827 50.8045 28.2025 50.8002 24.7331C50.7923 17.7948 45.4819 14.332 39.2148 14.3398C36.3065 14.3434 33.7555 15.1443 31.721 16.6011L31.7179 14L9 14.0279L9.00924 21.9488L15.7545 21.9405L15.7837 46.9513L25.1519 46.9399L25.1226 21.9289L27.6469 21.9257C27.2108 23.0367 26.9032 24.2515 26.7396 25.5597L34.6552 27.1441C34.7896 24.6592 35.6094 21.5639 38.5371 21.5605C40.4584 21.558 41.6038 23.0569 41.6059 24.932C41.6092 27.7448 39.3242 29.7167 37.405 31.4067L26.7562 39.6244L26.7647 46.9848L50.6434 46.9555L51 39.0789" fill="white"/>
</g>
<defs>
<clipPath id="clip0_150_763">
<rect width="42" height="33" fill="white" transform="translate(9 14)"/>
</clipPath>
</defs>
</svg>
