<svg width="60" height="60" viewBox="0 0 60 60" fill="none" xmlns="http://www.w3.org/2000/svg">
<rect width="60" height="60" fill="#FE3007"/>
<g clip-path="url(#clip0_1534_8453)">
<path d="M39.1725 41.8956H31.9006C31.0695 41.8991 30.2708 41.569 29.6793 40.9775L24.0001 35.2352C23.853 35.0873 23.7524 34.8986 23.7111 34.6929C23.6699 34.4872 23.6897 34.2737 23.7682 34.0794C23.8468 33.8852 23.9804 33.7188 24.1522 33.6015C24.324 33.4841 24.5263 33.421 24.7336 33.4201H38.1456C38.9793 33.4201 39.7789 33.0846 40.3684 32.4875C40.9579 31.8903 41.2891 31.0804 41.2891 30.2359C41.2891 29.3913 40.9579 28.5814 40.3684 27.9842C39.7789 27.3871 38.9793 27.0516 38.1456 27.0516H18.0904C16.7036 27.0513 15.3735 26.494 14.3916 25.5019L9.32018 20.3646C9.17304 20.2168 9.07248 20.0281 9.03121 19.8224C8.98994 19.6166 9.00982 19.4031 9.08833 19.2089C9.16684 19.0146 9.30045 18.8483 9.47227 18.7309C9.6441 18.6135 9.84642 18.5504 10.0536 18.5496H39.183C42.2398 18.5496 45.1715 19.7797 47.3331 21.9693C49.4946 24.1589 50.709 27.1287 50.709 30.2252C50.709 33.3218 49.4946 36.2916 47.3331 38.4812C45.1715 40.6708 42.2398 41.9009 39.183 41.9009L39.1725 41.8956Z" fill="#FEFEFD"/>
</g>
<defs>
<clipPath id="clip0_1534_8453">
<rect width="42" height="24" fill="white" transform="translate(9 18)"/>
</clipPath>
</defs>
</svg>
