<svg width="60" height="60" viewBox="0 0 60 60" fill="none" xmlns="http://www.w3.org/2000/svg">
<rect width="60" height="60" fill="#013C2D"/>
<path d="M11.4309 15.131C12.3012 13.1449 13.9065 11.5654 15.9162 10.7181C17.9258 9.87075 20.1866 9.82011 22.2328 10.5766L45.635 19.1658C50.6461 21.0047 50.608 28.0488 45.574 29.8323L44.4636 30.227L45.8678 30.7517C50.8153 32.6007 50.8051 39.5452 45.8512 41.3791L22.5151 50.0225C21.4153 50.4369 20.2435 50.6306 19.0676 50.5924C17.8917 50.5541 16.7352 50.2847 15.6651 49.7997C14.5951 49.3148 13.6328 48.624 12.8341 47.7673C12.0353 46.9106 11.4161 45.9052 11.0123 44.8094C10.6085 43.7136 10.4281 42.5491 10.4816 41.3836C10.5352 40.2181 10.8215 39.0748 11.3242 38.0199C11.8268 36.965 12.5356 36.0196 13.4096 35.2385C14.2835 34.4574 15.3052 33.8562 16.4153 33.4697L26.0128 30.0681L16.2639 26.4231C15.1836 26.0194 14.1972 25.4024 13.3644 24.6095C12.5316 23.8166 11.8699 22.8643 11.4192 21.8102C10.9685 20.7562 10.7383 19.6224 10.7425 18.4776C10.7467 17.3327 10.9852 16.2007 11.4436 15.1499L11.4309 15.131ZM35.2668 26.7888L41.7876 24.4782L20.0261 16.4906C19.4906 16.3064 18.9036 16.3371 18.3906 16.5763C17.8776 16.8156 17.4793 17.2443 17.2808 17.7708C17.0823 18.2974 17.0994 18.8801 17.3284 19.3943C17.5574 19.9086 17.9801 20.3136 18.5062 20.5229L35.2668 26.7888ZM35.2083 33.5063L18.5558 39.409C18.2356 39.5154 17.9401 39.6843 17.6869 39.9057C17.4336 40.1272 17.2276 40.3968 17.0812 40.6986C16.9347 41.0003 16.8507 41.3281 16.8342 41.6626C16.8176 41.997 16.8688 42.3314 16.9848 42.6459C17.1007 42.9605 17.2791 43.2487 17.5093 43.4938C17.7394 43.7388 18.0168 43.9356 18.325 44.0725C18.6332 44.2094 18.9659 44.2837 19.3035 44.291C19.6411 44.2982 19.9768 44.2383 20.2907 44.1148L42.0395 36.0591L35.2083 33.5063Z" fill="#157463"/>
<path d="M22.2201 10.5577C20.3575 9.86804 18.3105 9.84535 16.4328 10.4935C14.5552 11.1417 12.9649 12.42 11.9367 14.1075C10.9086 15.7949 10.5072 17.7856 10.802 19.7354C11.0967 21.6852 12.0691 23.4716 13.5511 24.7859C12.9299 23.6442 12.712 22.3292 12.9322 21.0504C13.1524 19.7716 13.7979 18.6027 14.766 17.7301C15.734 16.8575 16.9688 16.3314 18.2734 16.2357C19.578 16.14 20.8774 16.4801 21.9644 17.202L41.7876 24.4782L38.7225 25.5641L38.8649 25.6348L25.8182 30.1602L25.7838 30.1501L16.4153 33.4697C15.3052 33.8562 14.2835 34.4574 13.4096 35.2385C12.5356 36.0196 11.8268 36.965 11.3242 38.0199C10.8215 39.0748 10.5352 40.2181 10.4816 41.3836C10.4281 42.5491 10.6085 43.7136 11.0123 44.8094C11.4161 45.9052 12.0353 46.9106 12.8341 47.7673C13.6328 48.6239 14.5951 49.3148 15.6651 49.7997C16.7352 50.2847 17.8917 50.5541 19.0676 50.5924C20.2435 50.6306 21.4153 50.4369 22.5151 50.0225L45.8512 41.3791C50.8051 39.5452 50.8153 32.6007 45.8678 30.7517L44.4636 30.227L45.574 29.8323C50.6067 28.0488 50.6474 21.0047 45.635 19.1658L22.2328 10.5766L22.2201 10.5577ZM18.5558 39.409L35.2083 33.5063L42.0382 36.0591L20.2894 44.1148C19.9759 44.2358 19.6413 44.2936 19.305 44.2847C18.9687 44.2758 18.6377 44.2005 18.3312 44.063C18.0247 43.9256 17.7489 43.7289 17.5201 43.4844C17.2912 43.2399 17.1139 42.9525 16.9985 42.6392C16.8831 42.3259 16.832 41.9929 16.848 41.6597C16.8641 41.3265 16.9471 40.9998 17.0922 40.6988C17.2372 40.3979 17.4414 40.1286 17.6927 39.9069C17.9441 39.6852 18.2375 39.5168 18.5558 39.409Z" fill="#21C398"/>
<path d="M46.3677 29.4627V29.4791L29.4023 35.4915L29.2497 35.6177L35.2084 33.5063L42.0383 36.0591L22.224 43.3996L22.1896 43.5005L21.2141 43.8625C20.5138 44.2325 19.7437 44.4546 18.9526 44.5148C18.1614 44.5749 17.3662 44.4718 16.6172 44.2121C15.8682 43.9523 15.1816 43.5414 14.6007 43.0053C14.0198 42.4693 13.5572 41.8197 13.2421 41.0975C12.9269 40.3753 12.7661 39.5962 12.7698 38.8093C12.7734 38.0225 12.9415 37.2449 13.2633 36.5256C13.5851 35.8063 14.0537 35.161 14.6396 34.6302C15.2254 34.0995 15.9158 33.6949 16.6672 33.442C16.3213 33.5342 15.9815 33.6475 15.6497 33.7813C13.8834 34.5975 12.4366 35.9668 11.5321 37.6784C10.6275 39.39 10.3153 41.349 10.6436 43.2537C10.9719 45.1585 11.9225 46.9035 13.349 48.22C14.7754 49.5365 16.5987 50.3515 18.5381 50.5396C18.9567 50.5588 19.3762 50.5487 19.7934 50.5094L19.7807 50.5497H20.1623C20.9671 50.4808 21.7587 50.3034 22.5152 50.0225L45.8513 41.3791C50.8052 39.5452 50.8154 32.6007 45.8678 30.7517L44.4637 30.227L45.574 29.8323C45.8589 29.7314 46.1273 29.6141 46.3804 29.4816L46.3677 29.4627Z" fill="#157463"/>
</svg>
