<svg width="60" height="60" viewBox="0 0 60 60" fill="none" xmlns="http://www.w3.org/2000/svg">
<rect width="60" height="60" fill="#275AA4"/>
<g clip-path="url(#clip0_2190_9810)">
<path fill-rule="evenodd" clip-rule="evenodd" d="M18.5415 11.0051H37.8949C45.2253 10.9106 49.9873 13.6809 49.9873 21.2151C49.9873 26.5208 46.1438 30.9345 40.6762 31.7088V31.8009C44.0245 32.7874 44.8943 35.6267 44.8943 38.7038C44.8943 40.4391 44.589 43.0689 44.589 45.4636C44.589 47.1989 44.707 48.8423 45.1791 49.9923H36.4812C36.2451 49.0544 36.0784 48.234 36.0784 47.3651C36.0784 44.7583 36.5274 42.0824 36.5274 39.4526C36.5274 35.6983 34.2182 34.7604 30.6826 34.7604H22.29L18.9417 49.9923H10.0078L18.5415 11.0051ZM23.6576 28.6343H31.8834C36.5992 28.5883 41.1021 26.8505 41.1021 22.4598C41.1021 18.2582 38.036 17.6729 34.5004 17.6729H26.0386L23.6576 28.6343Z" fill="white"/>
</g>
<defs>
<clipPath id="clip0_2190_9810">
<rect width="40" height="39" fill="white" transform="translate(10 11)"/>
</clipPath>
</defs>
</svg>
