<svg width="60" height="60" viewBox="0 0 60 60" fill="none" xmlns="http://www.w3.org/2000/svg">
<rect width="60" height="60" fill="white"/>
<g clip-path="url(#clip0_147_210)">
<path d="M25.5496 17.2543C25.2569 17.2545 24.9738 17.3558 24.7513 17.5399C24.5288 17.724 24.3814 17.9789 24.3356 18.2588L22.3185 30.6417C22.4126 30.0634 22.9274 29.6372 23.5325 29.6372H29.4432C35.392 29.6372 40.4398 25.4368 41.3621 19.7446C41.4308 19.3196 41.4697 18.8906 41.4785 18.4606C39.9667 17.6933 38.1909 17.2543 36.245 17.2543H25.5496Z" fill="#001C64"/>
<path d="M41.4785 18.461C41.4697 18.8911 41.4308 19.3201 41.3621 19.745C40.4398 25.4373 35.3915 29.6377 29.4432 29.6377H23.5325C22.9279 29.6377 22.4126 30.0634 22.3185 30.6422L20.4638 42.0211L19.3021 49.1596C19.2794 49.2976 19.2879 49.4386 19.327 49.573C19.3661 49.7074 19.4349 49.8321 19.5286 49.9383C19.6223 50.0445 19.7387 50.1297 19.8697 50.1882C20.0008 50.2466 20.1433 50.2768 20.2876 50.2768H26.7033C26.996 50.2765 27.279 50.1752 27.5016 49.9911C27.7241 49.807 27.8714 49.5521 27.9172 49.2723L29.6071 38.8978C29.6529 38.6178 29.8004 38.3628 30.0231 38.1786C30.2458 37.9945 30.5291 37.8933 30.822 37.8933H34.5993C40.5481 37.8933 45.5959 33.6929 46.5182 28.0006C47.1732 23.9606 45.071 20.2843 41.4785 18.461Z" fill="#0070E0"/>
<path d="M18.2608 9.00023C17.6562 9.00023 17.1409 9.42593 17.0469 10.0038L12.0124 40.9042C11.9169 41.4908 12.3852 42.0213 12.9989 42.0213H20.4646L22.3184 30.6424L24.3355 18.2594C24.3812 17.9796 24.5286 17.7247 24.7512 17.5406C24.9737 17.3564 25.2567 17.2552 25.5495 17.2549H36.2449C38.1912 17.2549 39.9666 17.6944 41.4784 18.4612C41.5819 13.2788 37.1639 9.00023 31.0897 9.00023H18.2608Z" fill="#003087"/>
</g>
<defs>
<clipPath id="clip0_147_210">
<rect width="35" height="42" fill="white" transform="translate(12 9)"/>
</clipPath>
</defs>
</svg>
