<svg width="60" height="60" viewBox="0 0 60 60" fill="none" xmlns="http://www.w3.org/2000/svg">
<rect width="60" height="60" fill="#173D6E"/>
<g clip-path="url(#clip0_168_621)">
<path d="M13.0507 10.0811C18.8191 10.079 24.5876 10.0811 30.3561 10.08C31.8224 10.0832 33.2931 10.0523 34.7552 10.1878C36.5084 10.3872 38.2756 10.6602 39.922 11.316C42.3081 12.1873 44.4602 13.8659 45.5902 16.1523C46.1875 17.3019 46.525 18.5656 46.7191 19.8389C46.8571 20.7891 46.7342 21.751 46.5681 22.6884C46.2727 24.3499 45.6506 26.0178 44.4882 27.2805C44.0041 27.8137 43.396 28.2093 42.7847 28.5826C40.2228 30.3721 37.675 32.1786 35.1326 33.9937C39.3538 39.1861 43.5825 44.3711 47.8027 49.5635C44.5745 49.5667 41.3452 49.5614 38.1171 49.5667C37.9726 49.5763 37.8184 49.555 37.7462 49.4142C33.1648 43.4913 28.5792 37.5705 23.9946 31.6486C27.971 29.4336 31.9486 27.2165 35.9304 25.0101C36.7121 24.5792 37.2847 23.8295 37.5607 22.9945C37.8917 22.071 37.8475 21.0589 37.6329 20.1151C37.4669 19.3932 36.958 18.732 36.2507 18.4611C35.1099 17.9802 33.8484 17.9738 32.63 17.9204C28.991 17.9151 25.351 17.9194 21.712 17.9183C21.7098 28.4664 21.7098 39.0155 21.7098 49.5635C20.3879 49.5699 19.066 49.5539 17.7431 49.5742C16.1624 49.6126 14.5817 49.5443 13 49.5646V10.5941C13.014 10.4224 13.0323 10.2517 13.0507 10.0811Z" fill="white"/>
</g>
<defs>
<clipPath id="clip0_168_621">
<rect width="35" height="40" fill="white" transform="translate(13 10)"/>
</clipPath>
</defs>
</svg>
