<svg width="60" height="60" viewBox="0 0 60 60" fill="none" xmlns="http://www.w3.org/2000/svg">
<rect width="60" height="60" fill="black"/>
<g clip-path="url(#clip0_147_206)">
<path d="M18.5188 23.3246H21.3425V35.6033H18.5188V34.3232C17.2757 35.7836 15.7662 35.982 14.896 35.982C11.1666 35.982 9.03551 32.8266 9.03551 29.4549C9.03551 25.4522 11.7349 23 14.9315 23C15.8194 23 17.3822 23.2344 18.5188 24.749V23.3246ZM11.9302 29.527C11.9302 31.6546 13.2444 33.4397 15.2867 33.4397C17.0626 33.4397 18.7142 32.1234 18.7142 29.5631C18.7142 26.8766 17.0803 25.5964 15.2867 25.5964C13.2444 25.5784 11.9302 27.3273 11.9302 29.527ZM24.6989 23.3246H27.5226V24.4244C27.8423 24.0458 28.304 23.6311 28.6947 23.3967C29.2452 23.0721 29.778 22.982 30.4173 22.982C31.1099 22.982 31.8558 23.0902 32.6372 23.5589L31.4829 26.1553C30.8435 25.7406 30.3285 25.7226 30.0444 25.7226C29.4406 25.7226 28.8368 25.8128 28.2863 26.3897C27.5049 27.2372 27.5049 28.4092 27.5049 29.2205V35.5853H24.6812L24.6989 23.3246ZM34.4309 23.3246H37.2545V24.4605C38.1958 23.2885 39.3146 23 40.2381 23C41.4989 23 42.6888 23.613 43.3636 24.8031C44.3759 23.3426 45.8854 23 46.9509 23C48.4249 23 49.7036 23.7032 50.3962 24.9293C50.6271 25.344 51.0355 26.2455 51.0355 28.0305V35.6214H48.2118V28.8599C48.2118 27.4896 48.0698 26.9307 47.9455 26.6782C47.7679 26.2094 47.3416 25.5964 46.3294 25.5964C45.6368 25.5964 45.033 25.975 44.66 26.4979C44.1628 27.2011 44.1095 28.2469 44.1095 29.2927V35.6214H41.2858V28.8599C41.2858 27.4896 41.1438 26.9307 41.0194 26.6782C40.8419 26.2094 40.4156 25.5964 39.4034 25.5964C38.7108 25.5964 38.107 25.975 37.734 26.4979C37.2368 27.2011 37.1835 28.2469 37.1835 29.2927V35.6214H34.4309V23.3246Z" fill="white"/>
</g>
<defs>
<clipPath id="clip0_147_206">
<rect width="42" height="13" fill="white" transform="translate(9 23)"/>
</clipPath>
</defs>
</svg>
