<svg width="60" height="60" viewBox="0 0 60 60" fill="none" xmlns="http://www.w3.org/2000/svg">
<rect width="60" height="60" fill="white"/>
<g clip-path="url(#clip0_1329_8287)">
<mask id="mask0_1329_8287" style="mask-type:luminance" maskUnits="userSpaceOnUse" x="8" y="12" width="56" height="36">
<path d="M8.29333 47.1858H63.7915V12.8283H8.29333V47.1858Z" fill="white"/>
</mask>
<g mask="url(#mask0_1329_8287)">
<mask id="mask1_1329_8287" style="mask-type:luminance" maskUnits="userSpaceOnUse" x="9" y="21" width="41" height="19">
<path d="M9.99988 39.0002H49.9999V21.0002H9.99988V39.0002Z" fill="white"/>
</mask>
<g mask="url(#mask1_1329_8287)">
<path d="M42.8652 24.8584H40.5953V27.1064H42.8652C43.4039 27.1064 43.8373 27.5415 43.8373 28.0725C43.8373 28.6072 43.4039 29.0368 42.8652 29.0368H40.5953V31.2868H42.8652C44.6564 31.2868 46.1073 29.8469 46.1073 28.0725C46.1073 26.2976 44.6564 24.8584 42.8652 24.8584ZM29.9294 36.7542C32.6465 36.7542 34.9882 35.1765 36.0821 32.8933H38.9755V36.7542H40.5953V32.8933H42.8652C45.5527 32.8933 47.73 30.7346 47.73 28.0725C47.73 25.4097 45.5527 23.2502 42.8652 23.2502H38.9755V29.0368H36.6671C36.1963 25.7666 33.3591 23.2502 29.9294 23.2502H21.947L14.0068 36.7542H15.901L18.1704 32.8933H26.3302V36.7542H29.9294ZM49.9999 28.0725C49.9999 31.9778 46.8051 35.1433 42.8652 35.1433V39.0002H36.7065V35.9914C35.0404 37.8381 32.6238 39.0002 29.9294 39.0002H24.0603V35.1433H19.4733L17.2039 39.0002H9.99988L20.589 21.0002H29.9294C32.6238 21.0002 35.0404 22.1656 36.7065 24.0125V21.0002H42.8652C46.8051 21.0002 49.9999 24.1682 49.9999 28.0725ZM24.0603 24.8584V29.0368H20.4398L19.1174 31.2868H26.3302V24.8584H24.0603ZM35.1183 30.0002C35.1183 32.841 32.7942 35.1433 29.9294 35.1433H27.951V32.8933H29.9294C31.5423 32.8933 32.8493 31.5998 32.8493 30.0002C32.8493 28.404 31.5423 27.1064 29.9294 27.1064H27.951V24.8584H29.9294C32.7942 24.8584 35.1183 27.1606 35.1183 30.0002Z" fill="#EE2722"/>
<path d="M42.8652 24.8584H40.5953V27.1064H42.8652C43.4039 27.1064 43.8373 27.5415 43.8373 28.0725C43.8373 28.6072 43.4039 29.0368 42.8652 29.0368H40.5953V31.2868H42.8652C44.6564 31.2868 46.1073 29.8469 46.1073 28.0725C46.1073 26.2976 44.6564 24.8584 42.8652 24.8584ZM29.9294 36.7542C32.6465 36.7542 34.9882 35.1765 36.0821 32.8933H38.9755V36.7542H40.5953V32.8933H42.8652C45.5527 32.8933 47.73 30.7346 47.73 28.0725C47.73 25.4097 45.5527 23.2502 42.8652 23.2502H38.9755V29.0368H36.6671C36.1963 25.7666 33.3591 23.2502 29.9294 23.2502H21.947L14.0068 36.7542H15.901L18.1704 32.8933H26.3302V36.7542H29.9294ZM49.9999 28.0725C49.9999 31.9778 46.8051 35.1433 42.8652 35.1433V39.0002H36.7065V35.9914C35.0404 37.8381 32.6238 39.0002 29.9294 39.0002H24.0603V35.1433H19.4733L17.2039 39.0002H9.99988L20.589 21.0002H29.9294C32.6238 21.0002 35.0404 22.1656 36.7065 24.0125V21.0002H42.8652C46.8051 21.0002 49.9999 24.1682 49.9999 28.0725ZM24.0603 24.8584V29.0368H20.4398L19.1174 31.2868H26.3302V24.8584H24.0603ZM35.1183 30.0002C35.1183 32.841 32.7942 35.1433 29.9294 35.1433H27.951V32.8933H29.9294C31.5423 32.8933 32.8493 31.5998 32.8493 30.0002C32.8493 28.404 31.5423 27.1064 29.9294 27.1064H27.951V24.8584H29.9294C32.7942 24.8584 35.1183 27.1606 35.1183 30.0002Z" fill="#EE2722"/>
<path d="M42.8652 24.8584H40.5953V27.1064H42.8652C43.4039 27.1064 43.8373 27.5415 43.8373 28.0725C43.8373 28.6072 43.4039 29.0368 42.8652 29.0368H40.5953V31.2868H42.8652C44.6564 31.2868 46.1073 29.8469 46.1073 28.0725C46.1073 26.2976 44.6564 24.8584 42.8652 24.8584ZM29.9294 36.7542C32.6465 36.7542 34.9882 35.1765 36.0821 32.8933H38.9755V36.7542H40.5953V32.8933H42.8652C45.5527 32.8933 47.73 30.7346 47.73 28.0725C47.73 25.4097 45.5527 23.2502 42.8652 23.2502H38.9755V29.0368H36.6671C36.1963 25.7666 33.3591 23.2502 29.9294 23.2502H21.947L14.0068 36.7542H15.901L18.1704 32.8933H26.3302V36.7542H29.9294ZM49.9999 28.0725C49.9999 31.9778 46.8051 35.1433 42.8652 35.1433V39.0002H36.7065V35.9914C35.0404 37.8381 32.6238 39.0002 29.9294 39.0002H24.0603V35.1433H19.4733L17.2039 39.0002H9.99988L20.589 21.0002H29.9294C32.6238 21.0002 35.0404 22.1656 36.7065 24.0125V21.0002H42.8652C46.8051 21.0002 49.9999 24.1682 49.9999 28.0725ZM24.0603 24.8584V29.0368H20.4398L19.1174 31.2868H26.3302V24.8584H24.0603ZM35.1183 30.0002C35.1183 32.841 32.7942 35.1433 29.9294 35.1433H27.951V32.8933H29.9294C31.5423 32.8933 32.8493 31.5998 32.8493 30.0002C32.8493 28.404 31.5423 27.1064 29.9294 27.1064H27.951V24.8584H29.9294C32.7942 24.8584 35.1183 27.1606 35.1183 30.0002Z" fill="#EE2722"/>
</g>
</g>
</g>
<defs>
<clipPath id="clip0_1329_8287">
<rect width="40" height="18" fill="white" transform="translate(10 21)"/>
</clipPath>
</defs>
</svg>
