<svg width="60" height="60" viewBox="0 0 60 60" fill="none" xmlns="http://www.w3.org/2000/svg">
<rect width="60" height="60" fill="#640ACD"/>
<g clip-path="url(#clip0_150_791)">
<path d="M34.6831 24.5143C34.6831 22.1316 36.2952 19.8153 37.1773 20.2557C38.1796 20.7582 36.4264 23.004 34.6831 24.5143ZM23.6998 25.3852C23.6998 23.4683 25.5928 19.8223 26.7502 20.2063C28.1152 20.6608 25.6182 24.3379 23.6998 25.3852ZM21.783 39.0984C20.9121 39.138 20.3319 38.5805 20.3319 37.6516C20.3319 35.1532 23.7945 32.769 26.41 31.4887C25.9457 34.9753 24.7684 38.9616 21.783 39.0984ZM37.7618 30.9637C35.7883 30.9637 34.2752 32.4176 34.2752 34.1595C34.2752 35.6133 35.1461 36.7737 36.3092 36.7737C36.7172 36.7737 37.1208 36.5422 37.1208 36.0184C37.1208 35.2633 36.12 35.0798 36.1978 33.9492C36.2471 33.2039 36.9487 32.7056 37.6446 32.7056C39.0392 32.7056 39.6912 34.0564 39.6912 35.451C39.632 37.6008 38.0511 39.097 36.1921 39.097C33.7515 39.097 32.1847 36.7722 32.1847 34.2723C32.1847 30.5544 34.6238 29.1018 35.9013 28.7533C35.9139 28.7533 39.2438 29.3475 39.1393 27.8795C39.0942 27.2358 38.1343 26.9888 37.4385 26.9592C36.6663 26.9281 35.8914 27.2062 35.8914 27.2062C35.4849 27.0015 35.204 26.6019 35.0318 26.139C37.413 24.3364 39.0984 22.5947 39.0984 20.6185C39.0984 19.5725 38.4011 18.6423 37.0644 18.6423C34.6831 18.6423 32.8806 21.663 32.8806 24.3944C32.8806 24.8587 32.8806 25.3245 32.9977 25.7311C31.4874 26.8349 30.3638 27.5195 28.3297 28.7405C28.3297 28.485 28.3834 27.8315 28.5541 26.9788C29.2514 26.2237 30.2086 25.093 30.2086 24.2207C30.2086 23.8142 29.9771 23.4656 29.5113 23.4656C28.3495 23.4656 27.4786 25.2075 27.2456 26.4284C26.722 27.0679 25.6774 27.8822 24.8051 27.8822C24.1078 27.8822 23.8763 27.2414 23.817 27.0099C26.026 26.2534 28.756 23.2326 28.756 20.5013C28.756 19.9197 28.5232 18.6409 26.7813 18.6409C24.1656 18.6409 21.958 22.534 21.958 25.556C21.0278 25.556 20.6806 24.568 20.6806 23.8128C20.6806 23.0576 20.9713 22.301 20.9713 22.0695C20.9713 21.838 20.8542 21.5458 20.5055 21.5458C19.6332 21.5458 19.1109 22.7076 19.1109 24.0442C19.1702 25.9033 20.3898 27.0664 22.0173 27.1822C22.2502 28.286 23.2382 29.3319 24.4578 29.3319C25.2144 29.3319 26.1432 29.1004 26.7827 28.5189C26.7233 28.9268 26.667 29.2741 26.6077 29.6227C24.0513 30.9595 22.1923 31.8896 20.5069 33.3986C19.1716 34.6196 18.415 36.2457 18.415 37.526C18.415 39.2692 19.5189 40.8939 21.7844 40.8939C24.4578 40.8939 26.4905 38.7455 27.4786 35.7813C27.9444 34.3866 28.1307 32.3583 28.2464 30.4979C30.9199 28.9875 32.1875 28.1123 33.5793 27.1242C33.7544 27.415 33.9308 27.648 34.1609 27.8215C32.9413 28.461 30.0363 30.2622 30.0363 34.5024C30.0363 37.5246 32.0703 40.8939 36.0791 40.8939C39.3906 40.8939 41.6576 38.1654 41.6576 35.5499C41.6576 33.1672 40.3208 30.9595 37.7631 30.9595L37.7618 30.9637ZM47.7513 35.9535C47.7413 35.9719 47.7075 35.9986 47.6439 35.9761C47.5946 35.9577 47.579 35.9323 47.5804 35.9013C47.5833 35.8674 48.2834 33.8009 48.2792 31.428C48.2707 28.8703 47.2317 27.3021 45.8979 27.3021C45.0834 27.3021 44.5033 27.8837 44.5033 28.7546C44.5033 30.3242 46.4201 30.44 46.4201 33.8687C46.4201 35.2633 46.1293 36.5972 45.665 38.0525C43.5152 45.3149 36.6579 48.6843 29.9771 48.6843C26.897 48.6843 24.7077 48.0519 24.0556 47.7596C24.0288 47.7471 24.0075 47.6948 24.0273 47.644C24.0429 47.603 24.088 47.5734 24.112 47.5846C24.3773 47.6891 26.2562 48.2792 28.5795 48.2792C31.136 48.2792 32.6476 47.2346 32.6476 45.9529C32.6476 45.1412 32.0083 44.5019 31.1938 44.5019C29.6256 44.5019 29.5084 46.4766 26.139 46.4766C24.6865 46.4766 23.4091 46.1873 21.8973 45.7215C14.6928 43.5138 11.2585 36.7143 11.2641 29.9742C11.267 26.6924 12.1859 24.0782 12.2014 24.0528C12.2127 24.0358 12.2536 24.0175 12.3044 24.0358C12.3567 24.0528 12.3708 24.098 12.3651 24.1106C12.2804 24.3831 11.6707 26.2562 11.6707 28.5795C11.6707 31.1373 12.7166 32.6476 14.0519 32.6476C14.8071 32.6476 15.4465 32.0661 15.4465 31.2545C15.4465 29.6848 13.5297 29.5113 13.5297 26.1405C13.5297 24.6865 13.8204 23.4091 14.2848 21.8987C16.4925 14.6942 23.2906 11.3163 29.9742 11.2655C33.0796 11.2415 35.7983 12.1703 35.8999 12.2522C35.9183 12.2677 35.9379 12.3087 35.9183 12.3567C35.897 12.4103 35.8603 12.4174 35.842 12.4145C35.8096 12.4103 34.0423 11.6721 31.3673 11.6721C28.8703 11.6721 27.3021 12.7166 27.3021 14.0548C27.3021 14.8099 27.8822 15.448 28.7533 15.448C30.3229 15.448 30.44 13.5311 33.808 13.5311C35.2619 13.5311 36.5378 13.8218 38.0496 14.2862C45.3149 16.4939 48.6207 23.3512 48.6828 29.9742C48.7153 33.3675 47.7598 35.9366 47.7513 35.9535ZM29.9771 9.98526C18.9373 9.98526 9.98667 18.9345 9.98667 29.9727C9.98667 41.0111 18.9359 49.9603 29.9771 49.9603C41.0181 49.9603 49.9631 41.0139 49.9631 29.9727C49.9631 18.9316 41.0168 9.98526 29.9771 9.98526ZM29.9771 50.9498C18.4136 50.9498 9 41.5954 9 29.9742C9 18.3529 18.4108 9 29.9742 9C41.5376 9 50.9498 18.4122 50.9498 29.9756C50.9498 41.5391 41.5347 50.9512 29.9742 50.9512L29.9771 50.9498Z" fill="white"/>
</g>
<defs>
<clipPath id="clip0_150_791">
<rect width="42" height="42" fill="white" transform="translate(9 9)"/>
</clipPath>
</defs>
</svg>
