<svg width="60" height="60" viewBox="0 0 60 60" fill="none" xmlns="http://www.w3.org/2000/svg">
<rect width="60" height="60" fill="black"/>
<g clip-path="url(#clip0_146_153)">
<path fill-rule="evenodd" clip-rule="evenodd" d="M29.2249 13.0645C30.7107 12.9711 32.2143 13.1201 33.6491 13.5248C34.3687 13.7472 35.0816 14.0029 35.7324 14.3876C36.7007 14.9435 37.558 15.7307 38.0933 16.718C38.5708 17.5852 38.8018 18.5659 38.8951 19.5443C38.9994 20.6606 38.9772 21.7835 38.975 22.902C38.975 25.019 38.975 27.1352 38.975 29.2506C38.9772 29.9489 38.9439 30.6538 39.0905 31.3409C39.2171 32.0169 39.5103 32.6506 39.8967 33.2154C40.1677 33.6246 40.472 34.0093 40.754 34.4096C40.9717 34.7275 41.0361 35.2234 40.714 35.4992C39.5858 36.4531 38.4531 37.4048 37.3448 38.3855C37.1649 38.5389 36.9695 38.7057 36.7252 38.7368C36.4675 38.7724 36.181 38.7124 35.9833 38.5367C35.4014 38.0564 34.8484 37.5316 34.3887 36.9312C34.0688 36.502 33.7801 36.0506 33.4736 35.6126C32.8273 36.2485 32.1588 36.8712 31.4192 37.396C30.6108 37.9519 29.7135 38.3899 28.7562 38.6145C27.7346 38.8725 26.673 38.8969 25.6269 38.8992C24.9228 38.8614 24.2077 38.7902 23.5369 38.5567C22.7263 38.3166 21.9645 37.9096 21.3226 37.3581C20.4675 36.6377 19.8501 35.6526 19.5081 34.5897C19.1705 33.5646 19.0883 32.4727 19.1038 31.3987C19.166 29.9444 19.5924 28.4901 20.4253 27.2893C21.1005 26.2909 22.0355 25.4793 23.0816 24.8922C24.2143 24.254 25.4736 23.8893 26.7396 23.6314C28.6607 23.2356 30.6219 23.1022 32.5675 22.8865C32.5564 22.0748 32.6074 21.2565 32.5097 20.4471C32.4275 19.7466 32.1588 19.0306 31.6058 18.5636C30.955 18.0099 30.0689 17.792 29.2271 17.8454C28.2765 17.8699 27.3104 18.219 26.633 18.9016C26.1888 19.3442 25.9045 19.9312 25.7779 20.5427C25.7046 20.8941 25.4825 21.2498 25.1227 21.3521C24.9806 21.4122 24.8295 21.3699 24.6852 21.3521C23.337 21.2187 21.9911 21.0653 20.6452 20.9185C20.4453 20.9074 20.261 20.8073 20.1055 20.6873C19.8923 20.5138 19.8168 20.2181 19.8745 19.9557C20.1455 18.368 20.9073 16.8536 22.0733 15.7351C23.2904 14.5432 24.8962 13.8205 26.5375 13.4314C27.4214 13.229 28.3209 13.1001 29.2249 13.0645ZM29.327 26.8379C28.4431 27.0625 27.5591 27.4228 26.8973 28.0676C26.2021 28.7192 25.8423 29.662 25.7779 30.6004C25.7401 31.4343 25.8179 32.3082 26.2354 33.0464C26.6241 33.7536 27.3681 34.2583 28.1788 34.3206C28.8806 34.4207 29.5936 34.2272 30.2043 33.8825C30.8151 33.5067 31.3148 32.9686 31.6746 32.3504C32.1122 31.5922 32.3876 30.7449 32.4831 29.8755C32.6074 28.7592 32.5586 27.6318 32.563 26.5088C31.477 26.5222 30.3842 26.5822 29.327 26.8379Z" fill="white"/>
<path d="M46.2821 37.9941C46.9839 37.923 47.6968 37.9341 48.3964 38.0297C48.8673 38.0942 49.3559 38.172 49.7646 38.4322C49.9023 38.5145 49.9378 38.6812 49.9667 38.8258C50.0355 39.2794 49.9867 39.7419 49.9223 40.1956C49.7801 41.0872 49.5136 41.9612 49.1294 42.7817C48.7451 43.6222 48.2232 44.4094 47.5391 45.0343C47.4081 45.1521 47.2859 45.2989 47.106 45.3345C47.0039 45.3456 46.8684 45.3389 46.8195 45.2344C46.7507 45.0787 46.8373 44.9186 46.8862 44.7719C47.2282 43.9202 47.5591 43.0619 47.819 42.1791C47.9722 41.6454 48.1144 41.1028 48.1277 40.5469C48.1255 40.3023 48.0988 40.0177 47.8923 39.8531C47.7013 39.7108 47.4636 39.6441 47.2326 39.5952C46.7285 39.5173 46.2177 39.4973 45.709 39.524C44.7873 39.5351 43.8723 39.6441 42.9595 39.753C42.8373 39.7619 42.6996 39.7842 42.5886 39.7175C42.4597 39.6107 42.5108 39.4106 42.613 39.3039C42.804 39.1015 43.0572 38.9725 43.2971 38.8347C44.2121 38.3299 45.2493 38.0942 46.2821 37.9941Z" fill="#FF6200"/>
<path d="M10.2221 38.7746C10.4486 38.6679 10.6685 38.8235 10.8595 38.9303C13.5247 40.4691 16.3876 41.6409 19.3348 42.5082C20.3565 42.7839 21.3781 43.0641 22.4198 43.2575C23.0039 43.3665 23.5836 43.4977 24.1721 43.5822C25.2693 43.7423 26.3687 43.8891 27.4747 43.9669C30.1044 44.1581 32.7562 44.1003 35.3704 43.7401C37.5092 43.4777 39.6169 42.9885 41.6824 42.3792C43.0083 41.9856 44.2987 41.4853 45.5802 40.9716C45.9089 40.8404 46.3709 40.9894 46.4664 41.3585C46.5441 41.6454 46.3287 41.9056 46.1044 42.0545C44.7474 43.0352 43.2771 43.8602 41.7357 44.5162C39.5103 45.4834 37.1582 46.1439 34.7685 46.5553C33.6424 46.722 32.5142 46.8844 31.377 46.9199C30.231 46.9978 29.0827 46.9555 27.9389 46.8933C26.3087 46.771 24.6852 46.5397 23.0927 46.1706C22.0977 45.9126 21.1027 45.6591 20.1366 45.3033C16.543 44.0492 13.2049 42.0723 10.3642 39.5373C10.2443 39.4262 10.0866 39.3239 10.0577 39.1482C10.02 39.0037 10.0844 38.8413 10.2221 38.7746Z" fill="#FF6200"/>
</g>
<defs>
<clipPath id="clip0_146_153">
<rect width="40" height="34" fill="white" transform="translate(10 13)"/>
</clipPath>
</defs>
</svg>
