<svg width="60" height="60" viewBox="0 0 60 60" fill="none" xmlns="http://www.w3.org/2000/svg">
<g clip-path="url(#clip0_168_258)">
<rect width="60" height="60" fill="white"/>
<rect width="60" height="60" fill="#0F238C"/>
<g clip-path="url(#clip1_168_258)">
<path d="M37.0985 35.7489L38.5518 29.2008L39.1051 35.7489H42.2408L40.7876 25.3552H37.4339L35.8688 31.5914L34.3038 25.3552H30.9501L29.4968 35.7489H32.6269L33.1859 29.2008L34.6392 35.7489H37.0985Z" fill="white"/>
<path d="M46.8242 25.3552H43.8059V35.7489H50.9604V33.5662H46.8242V25.3552Z" fill="white"/>
<path d="M16.1941 25.3552H12.3932L9.03955 35.7489H12.3932L12.8404 33.878H15.7469L16.1941 35.7489H19.5478L16.1941 25.3552ZM14.2937 27.6418L15.2998 31.9032L13.2875 31.9032L14.2937 27.6418Z" fill="white"/>
<path d="M27.5964 28.2654C24.8188 26.0066 20.4844 26.925 20.4419 28.993C19.8117 25.156 24.8021 24.355 27.5961 25.563C27.6459 26.1791 27.6958 26.8424 27.5964 28.2654Z" fill="white"/>
<path d="M25.2918 29.4893C24.592 29.2353 23.5739 29.0043 23.5724 28.2645C23.5718 27.9623 23.7055 27.6342 24.3545 27.434C22.1187 27.6418 21.3731 30.1705 23.8459 31.4273C24.2768 31.6464 25.0252 31.8787 25.0252 32.6307C25.0252 33.5092 23.9872 33.8267 23.3044 33.8133C22.1702 33.7911 21.2582 33.4227 20.2183 32.7346V35.2291C21.449 35.7217 23.4536 36.2898 25.4632 35.7152C27.0873 35.2508 28.4906 33.9832 28.4906 32.6307C28.4907 30.4299 26.4364 29.9047 25.2918 29.4893Z" fill="white"/>
</g>
</g>
<defs>
<clipPath id="clip0_168_258">
<rect width="60" height="60" fill="white"/>
</clipPath>
<clipPath id="clip1_168_258">
<rect width="42" height="11" fill="white" transform="translate(9 25)"/>
</clipPath>
</defs>
</svg>
