<svg width="60" height="60" viewBox="0 0 60 60" fill="none" xmlns="http://www.w3.org/2000/svg">
<rect width="60" height="60" fill="#003867"/>
<path fill-rule="evenodd" clip-rule="evenodd" d="M20.3584 34.0992C18.5396 33.6104 16.8507 33.272 15.2824 33.272C13.6306 33.272 12.3222 33.9864 12.3222 35.0957C12.3222 36.1391 13.2965 36.7595 15.0318 36.7595C16.8135 36.7595 18.6231 35.6409 20.3584 34.0992ZM15.0133 37.7183C11.7654 37.7183 9.72386 36.7407 9.72386 35.3119C9.72386 33.272 12.9439 32.2098 16.73 32.2098C18.2983 32.2098 20.0058 32.4072 21.806 32.708C22.5113 31.9842 23.2073 31.2134 23.8754 30.4613C25.2117 28.9573 27.179 26.7953 28.8215 25.5168C31.9395 23.101 35.9204 21.3525 40.1242 21.3525C45.3486 21.3525 49.5338 23.1386 49.5338 25.8082C49.5338 27.3405 48.049 28.6659 45.395 28.7693L45.3115 28.2805C45.8683 28.0173 46.555 27.5473 46.555 26.0996C46.555 24.2008 44.4485 22.3114 40.5789 22.3114C36.8577 22.3114 34.7326 24.0786 32.3385 26.5979C31.0857 27.9139 29.7402 29.5495 28.5152 30.828C27.5966 31.7774 26.6129 32.6516 25.5921 33.4318C29.7866 34.2872 34.2223 35.2837 38.3239 35.2837C42.5462 35.2837 44.4671 34.1744 45.4507 33.2532L45.7198 33.648C44.6619 35.8477 41.4604 37.7183 37.3681 37.7183C32.1251 37.7183 27.4481 36.2237 23.3465 34.9735C20.479 36.7125 17.5095 37.7183 15.0133 37.7183Z" fill="white"/>
</svg>
