<svg width="60" height="60" viewBox="0 0 60 60" fill="none" xmlns="http://www.w3.org/2000/svg">
<g clip-path="url(#clip0_1642_9034)">
<rect width="60" height="60" fill="white"/>
<rect width="60" height="60" fill="black"/>
<g clip-path="url(#clip1_1642_9034)">
<path d="M23.9959 13.0964C24.448 12.8223 24.9 12.5482 25.352 12.3655C25.5328 12.8223 25.8041 13.2792 25.9849 13.736C24.9904 14.2843 23.9959 14.7411 23.0919 15.3807C20.5605 16.934 18.21 18.7614 16.221 21.0457C14.6841 22.8731 13.4185 25.066 13.1472 27.533C13.0568 28.9949 13.328 30.5482 14.2321 31.736C15.0458 32.7411 16.3114 33.4721 17.5771 33.6548C19.0236 33.9289 20.5605 33.7462 21.9166 33.3807C24.7192 32.6497 27.2506 31.2792 29.6915 29.8173C31.138 28.9036 32.5845 27.9898 33.7598 26.7107C34.2118 26.1624 34.5734 25.5228 34.5734 24.7919C34.5734 24.2437 34.2118 23.6954 33.7598 23.5127C33.3077 23.2386 32.6749 23.1472 32.1325 23.2386C31.4092 23.4213 30.686 23.7868 29.9627 24.1523C27.8834 25.2487 26.0753 26.7107 23.9959 27.8071C22.7303 28.4467 21.3742 29.0863 19.9277 29.0863C19.0236 29.0863 18.1196 28.7208 17.5771 27.9898C17.1251 27.4416 16.9443 26.802 17.0347 26.0711C17.1251 24.9746 17.5771 23.8782 18.21 23.0558C19.3852 21.4112 21.0125 20.2233 22.7303 19.2183C25.6232 17.2995 28.7875 15.7462 32.1325 14.8325C33.9406 14.3756 35.7487 14.1015 37.5568 14.1929C40.1786 14.2843 42.8004 15.1066 44.9701 16.6599C47.5015 18.4873 49.4 21.4112 49.5808 24.6091C49.852 27.2589 49.0384 29.9086 47.8631 32.2843C46.959 34.1117 45.6933 35.7563 44.3373 37.2183C43.2524 38.4061 42.0771 39.5025 40.9018 40.5076C39.3649 41.8782 37.6472 43.066 35.9295 44.1624C34.2118 45.2589 32.3133 46.1726 30.4148 46.9949C29.8723 47.269 29.2395 47.5431 28.697 47.7259C28.3354 46.0812 27.793 44.4365 27.4314 42.7919C28.9683 42.0609 30.5052 41.4213 32.0421 40.599C33.7598 39.6853 35.3871 38.4975 36.924 37.3096C38.2801 36.2132 39.5457 35.1167 40.721 33.8376C42.71 31.736 44.3373 28.9949 44.6989 26.0711C44.7893 24.9746 44.7893 23.9695 44.5181 22.8731C43.8852 20.6802 42.3483 18.7614 40.269 17.665C38.5513 16.7513 36.5624 16.3858 34.6638 16.5685C31.8612 16.7513 29.2395 17.8477 26.7985 19.1269C25.6232 19.7665 24.5384 20.4061 23.4535 21.1371C22.3686 21.7766 21.3742 22.5076 20.5605 23.5127C20.1989 23.9695 19.9277 24.5178 19.9277 25.066C19.9277 25.4315 20.1989 25.8883 20.5605 25.9797C21.1934 26.2538 21.9166 25.9797 22.5494 25.7056C25.5328 24.2437 28.0642 21.9594 31.2284 20.8629C32.7653 20.3147 34.5734 20.2233 36.1103 20.8629C37.376 21.4112 38.3705 22.599 38.6417 23.9695C38.7321 24.7919 38.7321 25.6142 38.4609 26.3452C38.0088 27.533 37.2856 28.5381 36.3815 29.4518C35.2967 30.5482 34.031 31.4619 32.7653 32.2843C30.9572 33.2893 29.2395 34.4772 27.341 35.2995C25.7137 36.0305 23.9055 36.67 22.1878 37.1269C20.1989 37.6751 18.1196 37.7665 16.1306 37.3096C14.1417 36.8528 12.5144 35.7563 11.6103 34.203C10.7967 32.9239 10.4351 31.3706 10.4351 29.9086C10.5255 28.1726 10.8871 26.4365 11.6103 24.8832C12.876 22.2335 14.7745 19.8579 17.0347 17.9391C19.2044 16.0203 21.555 14.3756 24.0863 13.0051L23.9959 13.0964Z" fill="#70BF4E"/>
</g>
</g>
<defs>
<clipPath id="clip0_1642_9034">
<rect width="60" height="60" fill="white"/>
</clipPath>
<clipPath id="clip1_1642_9034">
<rect width="40" height="36" fill="white" transform="translate(10 12)"/>
</clipPath>
</defs>
</svg>
