<svg width="60" height="60" viewBox="0 0 60 60" fill="none" xmlns="http://www.w3.org/2000/svg">
<rect width="60" height="60" fill="#C53645"/>
<path fill-rule="evenodd" clip-rule="evenodd" d="M44.7101 11.1534C20.8971 13.3808 17.8617 29.5332 25.6465 34.6896C24.3043 40.5209 25.5549 40.3854 25.5549 40.3854C25.7949 38.6475 26.1431 36.9257 26.5975 35.23C29.6352 23.8637 37.1537 13.9478 44.7331 11.3592V11.3568C44.7586 11.3541 44.7822 11.3422 44.7995 11.3235C44.8168 11.3047 44.8266 11.2804 44.8271 11.2551C44.8264 11.2283 44.8154 11.2028 44.7962 11.1838C44.777 11.1649 44.7511 11.1539 44.7239 11.1533L44.7101 11.1534ZM43.4612 14.8617C43.4395 14.8617 43.4182 14.8685 43.4006 14.8811C43.3829 14.8937 43.3697 14.9113 43.3627 14.9317C41.3951 18.7278 40.8279 24.1626 39.3272 28.3199C37.6119 33.0781 34.5645 36.2795 29.8561 35.9761V47.5396C29.8561 47.5396 17.2799 41.9449 17.2799 32.9507V16.0985L27.5577 15.1759H27.56C27.5871 15.1755 27.613 15.1648 27.6324 15.1461C27.6518 15.1273 27.6631 15.102 27.664 15.0752C27.6649 15.0485 27.6553 15.0224 27.6373 15.0024C27.6192 14.9824 27.5941 14.9701 27.567 14.9679V14.9656H16.1412V32.9507C16.1412 43.069 29.8518 48.6905 29.8518 48.6905C29.8518 48.6905 43.5714 42.9764 43.5714 32.9507V14.9656H43.5691C43.5691 14.9517 43.5662 14.938 43.5608 14.9253C43.5553 14.9125 43.5474 14.901 43.5373 14.8913C43.5273 14.8816 43.5154 14.874 43.5024 14.8689C43.4893 14.8638 43.4753 14.8614 43.4612 14.8617Z" fill="white"/>
</svg>
