<svg width="60" height="60" viewBox="0 0 60 60" fill="none" xmlns="http://www.w3.org/2000/svg">
<rect width="60" height="60" fill="black"/>
<g clip-path="url(#clip0_150_671)">
<path d="M43.2608 18.1053C43.2373 17.8953 43.0492 17.802 42.9081 17.7786C42.767 17.7553 39.9451 17.732 39.9451 17.732C39.9451 17.732 37.5699 15.4457 37.3348 15.2124C37.0996 14.9791 36.6528 15.0491 36.4647 15.0957C36.4647 15.0957 36.0178 15.2357 35.2653 15.469C35.1478 15.0724 34.9596 14.5825 34.7009 14.0926C33.8544 12.4828 32.6315 11.643 31.1265 11.643C31.0324 11.643 30.9148 11.643 30.8208 11.6663C30.7737 11.6196 30.7267 11.573 30.6797 11.503C30.0212 10.8031 29.1982 10.4765 28.2105 10.4998C26.2821 10.5465 24.3773 11.9229 22.8018 14.3959C21.6965 16.1222 20.8734 18.2919 20.6383 19.9716C18.4277 20.6482 16.8757 21.1148 16.8522 21.1381C15.7469 21.488 15.6999 21.5114 15.5588 22.5612C15.4412 23.3311 12.5252 45.7508 12.5252 45.7508L37.0055 49.9501L47.6113 47.3372C47.6113 47.3372 43.2844 18.2919 43.2608 18.1053ZM34.0425 15.8423C33.4781 16.0056 32.8432 16.2156 32.1377 16.4255C32.1142 15.469 31.9966 14.1159 31.5498 12.9494C33.0313 13.2294 33.7368 14.8624 34.0425 15.8423ZM30.8678 16.8221C29.5744 17.2187 28.187 17.6387 26.776 18.0819C27.1758 16.5888 27.9283 15.0957 28.8454 14.1159C29.1982 13.7426 29.6685 13.346 30.2329 13.1127C30.7737 14.2092 30.8678 15.7723 30.8678 16.8221ZM28.234 11.7829C28.6808 11.7829 29.0571 11.8763 29.3863 12.0862C28.8689 12.3429 28.3516 12.7395 27.8813 13.2527C26.6584 14.5592 25.7178 16.5655 25.3415 18.5252C24.1657 18.8751 23.0369 19.2251 21.9787 19.5517C22.6842 16.4722 25.271 11.8763 28.234 11.7829Z" fill="#95BF47"/>
<path d="M42.9081 17.7786C42.767 17.7553 39.9451 17.732 39.9451 17.732C39.9451 17.732 37.5699 15.4457 37.3348 15.2124C37.2407 15.119 37.1231 15.0724 37.0055 15.0724V49.9501L47.6113 47.3372C47.6113 47.3372 43.2843 18.3152 43.2608 18.1052C43.2138 17.8953 43.0492 17.8019 42.9081 17.7786Z" fill="#5E8E3E"/>
<path d="M31.1265 23.1911L29.9036 27.7637C29.9036 27.7637 28.5397 27.1338 26.8936 27.2504C24.4949 27.3904 24.4714 28.8835 24.4949 29.2801C24.636 31.3331 30.0447 31.7763 30.3504 36.5589C30.5856 40.3383 28.3281 42.9045 25.0828 43.1145C21.1791 43.3478 19.0392 41.0848 19.0392 41.0848L19.8622 37.6087C19.8622 37.6087 22.0257 39.2185 23.7424 39.1251C24.8712 39.0552 25.271 38.1453 25.2239 37.4921C25.0593 34.8325 20.6383 34.9725 20.3561 30.6099C20.1209 26.9238 22.5666 23.1911 27.9518 22.8411C30.0683 22.6545 31.1265 23.1911 31.1265 23.1911Z" fill="white"/>
</g>
<defs>
<clipPath id="clip0_150_671">
<rect width="36" height="40" fill="white" transform="translate(12 10)"/>
</clipPath>
</defs>
</svg>
