<svg width="60" height="60" viewBox="0 0 60 60" fill="none" xmlns="http://www.w3.org/2000/svg">
<rect width="60" height="60" fill="#DE1E34"/>
<g clip-path="url(#clip0_1749_9029)">
<path fill-rule="evenodd" clip-rule="evenodd" d="M46.2459 32.3429H47.7655V27H46.2459V32.3429Z" fill="white"/>
<path fill-rule="evenodd" clip-rule="evenodd" d="M50 27V32.3429H48.4806V27H50Z" fill="white"/>
<path fill-rule="evenodd" clip-rule="evenodd" d="M13.2401 29.0752H12.0111V27H10V32.3429H12.0111V29.6936H13.2401V32.3429H15.2514V27H13.2401V29.0752Z" fill="white"/>
<path fill-rule="evenodd" clip-rule="evenodd" d="M22.6816 28.9869L22.5586 28.6338H20.9049V32.3429H22.5586V30.113C22.5586 29.6272 22.8715 29.3624 23.1396 29.3624C23.3631 29.3624 23.6535 29.4065 23.6535 29.8923V32.3429H25.3071V29.9365C25.3071 28.5897 23.7767 28.0599 22.6816 28.9869Z" fill="white"/>
<path fill-rule="evenodd" clip-rule="evenodd" d="M39.6649 30.7863L38.894 28.6338H37.7655L36.9944 30.8746L36.1899 28.6338H34.6146H34.6033H33.9778L33.1843 30.5213L32.067 28.6338H30.1787L32.4022 32.387L32.1118 33.0933C32.0111 33.3143 31.7703 33.3252 31.7232 33.1154C31.7232 32.7361 31.4118 32.4287 31.0279 32.4287C30.6439 32.4287 30.3326 32.7361 30.3326 33.1154C30.3353 33.5129 30.7375 34.0317 31.5307 33.9985C32.3241 33.9655 32.6592 33.3143 32.7709 33.0383L34.6085 28.6482L35.9331 32.3429H37.1397L37.8772 30.2122L38.637 32.3429H39.7766L41.0615 28.6338H40.4023L39.6649 30.7863Z" fill="white"/>
<path fill-rule="evenodd" clip-rule="evenodd" d="M18.1004 28.4452C16.8351 28.4452 15.8095 29.3747 15.8095 30.5212C15.8095 31.6681 16.8351 32.5976 18.1004 32.5976C19.3659 32.5976 20.3917 31.6681 20.3917 30.5212C20.3917 29.3747 19.3659 28.4452 18.1004 28.4452ZM18.6704 31.4926C18.6704 31.8036 18.4152 32.0557 18.1004 32.0557C17.7859 32.0557 17.5308 31.8036 17.5308 31.4926V29.55C17.5308 29.2392 17.7859 28.9873 18.1004 28.9873C18.4152 28.9873 18.6704 29.2392 18.6704 29.55V31.4926Z" fill="white"/>
<path fill-rule="evenodd" clip-rule="evenodd" d="M30.3623 30.8193C30.3744 30.7324 30.3806 30.6112 30.3806 30.5212C30.3806 29.3747 29.3548 28.4452 28.0895 28.4452C26.824 28.4452 25.7982 29.3747 25.7982 30.5212C25.7982 31.6681 26.824 32.5976 28.0895 32.5976C28.959 32.5976 29.7152 32.1587 30.1036 31.512L29.5974 31.327C29.2916 31.7888 28.7307 32.098 28.0895 32.098C27.7747 32.098 27.5195 31.8036 27.5195 31.4926V30.8195L30.3623 30.8193ZM27.5195 29.55C27.5195 29.2392 27.7747 28.9873 28.0895 28.9873C28.4042 28.9873 28.6593 29.2392 28.6593 29.55V30.2896H27.5195V29.55Z" fill="white"/>
<path fill-rule="evenodd" clip-rule="evenodd" d="M45.6694 30.8193C45.6817 30.7324 45.688 30.6112 45.688 30.5212C45.688 29.3747 44.6622 28.4452 43.3967 28.4452C42.1314 28.4452 41.1056 29.3747 41.1056 30.5212C41.1056 31.6681 42.1314 32.5976 43.3967 32.5976C44.2663 32.5976 45.0226 32.1587 45.4109 31.512L44.9048 31.327C44.5989 31.7888 44.0381 32.098 43.3967 32.098C43.082 32.098 42.8269 31.8036 42.8269 31.4926V30.8195L45.6694 30.8193ZM42.8269 29.55C42.8269 29.2392 43.082 28.9873 43.3967 28.9873C43.7115 28.9873 43.9667 29.2392 43.9667 29.55V30.2896H42.8269V29.55Z" fill="white"/>
</g>
<defs>
<clipPath id="clip0_1749_9029">
<rect width="40" height="7" fill="white" transform="translate(10 27)"/>
</clipPath>
</defs>
</svg>
