<svg width="60" height="60" viewBox="0 0 60 60" fill="none" xmlns="http://www.w3.org/2000/svg">
<rect width="60" height="60" fill="#00643C"/>
<g clip-path="url(#clip0_146_179)">
<ellipse cx="29.4" cy="30" rx="23.4" ry="23" fill="white"/>
<path d="M43.9844 25.4812C47.35 24.3141 49.5594 27.6562 52.1562 26.8766C49.5703 24.6172 47.9266 21.3359 47.8609 17.6687V17.6578C47.8641 17.6453 47.8656 17.6312 47.8656 17.6172C47.8656 17.5016 47.7719 17.4062 47.6547 17.4062C47.6016 17.4062 47.5531 17.4266 47.5156 17.4594C46.2219 18.4031 45.3203 19.8172 45.0625 21.4437L45.0578 21.4781C44.1094 20.8391 42.9406 20.4578 41.6828 20.4578C40.8844 20.4578 40.1219 20.6109 39.4234 20.8906L39.4641 20.8766C41.25 22.1375 42.75 23.6656 43.9422 25.4203L43.9813 25.4812H43.9844ZM40.2391 15.1391C38.5547 15.2359 37.0312 15.8594 35.8125 16.8437L35.8266 16.8328C36.3625 15.325 37.0344 14.0187 37.8516 12.8219L37.8125 12.8812C35.7203 13.0328 33.8609 13.9188 32.4672 15.2797L32.4688 15.2781L31.425 12.5437L33.7406 10.4984L30.6406 10.2797L29.4031 7.39531L28.1656 10.2797L25.0656 10.4984L27.3813 12.5437L26.3391 15.2781C24.9469 13.9203 23.0875 13.0344 21.0234 12.8828L20.9953 12.8812C21.7719 14.0187 22.4422 15.325 22.9406 16.7109L22.9781 16.8328C21.775 15.8594 20.2516 15.2359 18.5875 15.1406L18.5672 15.1391C19.5562 16.3719 20.4297 17.7688 21.1313 19.2625L21.1844 19.3891C21.2266 19.4969 21.3297 19.5719 21.45 19.5719C21.5062 19.5719 21.5594 19.5562 21.6031 19.5266H21.6016C23.8766 18.375 26.5609 17.7016 29.4016 17.7016C32.2422 17.7016 34.9281 18.375 37.3031 19.5734L37.2016 19.5281C37.2437 19.5562 37.2969 19.5719 37.3531 19.5719C37.4734 19.5719 37.5766 19.4969 37.6172 19.3906C38.3719 17.7703 39.2453 16.3719 40.2672 15.0969L40.2359 15.1375L40.2391 15.1391ZM25.2625 23.3359C25.6234 23.1109 26.0609 22.9781 26.5297 22.9781C26.95 22.9781 27.3453 23.0859 27.6891 23.2734L27.6766 23.2672C27.7203 22.7703 26.8312 22.2281 25.9438 22.2281C25.2984 22.2281 24.9797 22.4453 24.9797 22.7609C24.9797 22.9937 25.0906 23.2016 25.2609 23.3344L25.2625 23.3359ZM32.8625 22.2297C32.8391 22.2281 32.8125 22.2281 32.7844 22.2281C32.2234 22.2281 31.7156 22.4531 31.3469 22.8172C31.3297 22.8703 31.3188 22.9328 31.3188 22.9969C31.3188 23.0781 31.3359 23.1547 31.3641 23.225L31.3625 23.2219C32.3078 22.8984 33.1406 22.8859 33.5438 23.3359C33.7156 23.2016 33.8266 22.9953 33.8266 22.7625C33.8266 22.4484 33.5063 22.2297 32.8625 22.2297ZM29.4031 18.7547C29.3234 18.75 29.2297 18.7469 29.1344 18.7469C27.2453 18.7469 25.6266 19.9 24.9437 21.5422L24.9328 21.5719C24.8969 21.6937 24.9453 21.7719 25.0859 21.7094C25.4594 21.5453 25.8937 21.4484 26.35 21.4484C26.3687 21.4484 26.3875 21.4484 26.4062 21.4484H26.4031C26.4391 21.4469 26.4797 21.4453 26.5203 21.4453C27.3172 21.4453 28.0344 21.7891 28.5297 22.3375L28.5312 22.3406C28.6328 22.6656 28.6906 23.0406 28.6906 23.4281C28.6906 23.8281 28.6297 24.2125 28.5141 24.5734L28.5219 24.5469C28.1562 24.4656 28.025 24.1828 27.6688 24.1828C27.3125 24.1828 27.0359 24.4328 26.4312 24.4328C25.8281 24.4328 25.7562 24.1469 25.3594 24.1469C24.8922 24.1469 24.8062 24.6281 24.8062 25.1719C24.8062 27.5938 27.0312 30.925 29.3984 30.925C31.7656 30.925 33.9906 27.5938 33.9906 25.1719C33.9906 24.6281 33.8781 24.1641 33.3906 24.1C33.1375 24.3078 32.8109 24.4344 32.4547 24.4344C32.4234 24.4344 32.3937 24.4328 32.3625 24.4312H32.3672C31.7625 24.4312 31.5953 24.1812 31.2391 24.1812C30.8094 24.1812 30.8516 25.0875 30.3422 25.1391C30.1687 24.6906 30.0688 24.1734 30.0688 23.6312C30.0688 23.1687 30.1422 22.725 30.2766 22.3078L30.2688 22.3375C30.7672 21.7875 31.4828 21.4437 32.2812 21.4437C32.3219 21.4437 32.3625 21.4453 32.4031 21.4469H32.3969C32.4125 21.4469 32.4313 21.4469 32.4516 21.4469C32.9078 21.4469 33.3422 21.5422 33.7359 21.7156L33.7156 21.7078C33.8563 21.7703 33.9062 21.6922 33.8688 21.5703C33.175 19.9 31.5562 18.7453 29.6687 18.7453C29.575 18.7453 29.4812 18.7484 29.3875 18.7531H29.4L29.4031 18.7547ZM19.3406 20.875C18.6828 20.6109 17.9219 20.4578 17.1234 20.4578C15.8656 20.4578 14.6969 20.8391 13.7266 21.4922L13.7484 21.4781C13.4859 19.8156 12.5844 18.4016 11.3094 17.4703L11.2922 17.4578C11.2547 17.425 11.2063 17.4062 11.1531 17.4062C11.0375 17.4062 10.9422 17.5 10.9422 17.6172C10.9422 17.6312 10.9438 17.6453 10.9469 17.6594V17.6578C10.8813 21.3359 9.2375 24.6187 6.66562 26.8641L6.65156 26.8766C9.24688 27.6562 11.4578 24.3141 14.8234 25.4812C16.0547 23.6656 17.5547 22.1375 19.2859 20.9125L19.3406 20.875ZM52.7766 30.6922C52.7474 31.2484 52.6979 31.8026 52.6281 32.3547C49.9781 32.7938 49.0313 30.4328 46.3172 30.55C46.4547 31.0109 46.5922 31.6063 46.6984 32.2109L46.7125 32.3125C48.9516 32.3109 49.8531 34.4031 52.3438 34.0953C52.2125 34.7349 52.0557 35.3661 51.8734 35.9891C49.9047 36.1828 49.2109 34.225 46.9313 34.2797C46.95 34.6036 46.9594 34.9313 46.9594 35.2625L46.95 35.8094L51.375 37.4984C51.1438 38.1255 50.8859 38.7417 50.6016 39.3469C49.2719 39.2734 48.8125 37.5672 46.7891 37.7031C46.7286 38.1385 46.6521 38.5708 46.5594 39C48.3172 38.8766 48.6953 40.4953 49.9547 40.6266C49.6339 41.2109 49.2891 41.7807 48.9203 42.3359C48.175 41.9359 47.5281 40.7313 46.1125 40.6562C46.2583 40.2073 46.3849 39.7526 46.4922 39.2922C44.9828 39.2609 43.6172 38.6641 42.5969 37.7047L42.6 37.7078C42.9906 35.4875 39.5438 33.2266 39.5438 31.6C39.5438 29.8328 40.4375 28.8563 40.4375 26.475C40.3703 24.5219 39.5609 22.7687 38.2844 21.4797C38.0484 21.2391 37.7859 21.025 37.5 20.8453L37.4828 20.8344C38.7234 22.2266 39.5063 24.0516 39.5844 26.0562V26.0719C39.5844 28.3141 38.5406 29.4984 38.5406 31.5672C38.5406 33.6359 41.5687 35.4266 41.5687 37.5609C41.4703 38.7922 41.0531 39.9109 40.4016 40.8531L40.4156 40.8313C41.5094 41.9828 42.9953 42.7531 44.6578 42.9266L44.6875 42.9297C44.7156 42.9344 44.7469 42.9359 44.7797 42.9359C45.0547 42.9359 45.2891 42.7688 45.3875 42.5297L45.3891 42.525C45.5036 42.274 45.612 42.0198 45.7141 41.7625C46.9437 41.8109 47.5078 42.9281 48.1891 43.375C47.8151 43.8771 47.4224 44.362 47.0109 44.8297C46.5219 44.1266 45.8547 43.5797 45.0719 43.2484L45.0422 43.2375C44.8818 43.55 44.712 43.8573 44.5328 44.1594C45.2531 44.4828 45.8391 45.0016 46.2359 45.6469L46.2453 45.6641C45.8036 46.1214 45.3438 46.5604 44.8656 46.9813C44.5297 46.4328 44.1 45.975 43.5953 45.6172L43.5812 45.6078C43.3885 45.8682 43.1885 46.1224 42.9813 46.3703C43.4266 46.7172 43.7922 47.1438 44.0594 47.6313L44.0703 47.6531C43.5172 48.0969 42.9469 48.5172 42.3547 48.9094C42.0625 46.5328 38.8172 44.9031 39.6922 42.1453C39.3344 42.6578 39.1047 43.2844 39.0625 43.9609V43.9719C39.0625 45.9688 41.1891 47.5531 41.3594 49.5375C40.9188 49.801 40.4682 50.05 40.0078 50.2844C39.9313 48.1031 37.6797 45.7172 37.6797 43.9266C37.6797 41.9281 40.2969 39.9219 40.2969 37.5625C40.2969 35.2016 37.2781 33.5688 37.2781 31.4953C37.2781 29.4219 38.5625 28.2328 38.5625 25.5781C38.5312 23.525 37.6328 21.6891 36.2188 20.4141L36.2125 20.4078C35.9797 20.1969 35.7172 20.0125 35.4328 19.8625L35.4125 19.8516C36.7281 21.2234 37.5391 23.0875 37.5391 25.1422C37.5391 25.1453 37.5391 25.15 37.5391 25.1531C37.5391 27.6484 36.0672 29.0344 36.0672 31.4781C36.0672 33.9219 39.0297 35.2813 39.0297 37.5609C39.0297 39.8406 36.2719 41.7594 36.2719 44.1C36.2719 46.2297 38.7031 48.3547 38.7391 50.8813C38.2057 51.1135 37.6646 51.325 37.1156 51.5156C37.425 48.9641 34.6875 46.3312 34.6875 44.2484C34.6875 41.9719 37.5484 40.0141 37.5484 37.5609C37.5484 35.1047 34.6391 33.9625 34.6391 31.4422C34.6391 28.9234 36.4234 27.5281 36.4234 24.7437C36.4109 22.5797 35.3875 20.6578 33.8031 19.425L33.7875 19.4141L33.6875 19.3391C33.5406 19.2297 33.4187 19.3609 33.5234 19.4906C34.5828 20.7297 35.2266 22.3516 35.2266 24.1234C35.2266 24.2016 35.225 24.2781 35.2234 24.3547V24.3438C35.2234 26.8906 33.1734 28.9594 33.1734 31.4266C33.1734 34.3391 35.9266 35.1703 35.9266 37.5594C35.9266 39.9484 32.975 41.8578 32.975 44.3937C32.975 46.7453 35.7688 49.3547 35.2891 52.0703C34.7255 52.2172 34.1573 52.3422 33.5844 52.4453C34.1094 49.0656 31.3687 46.6375 31.3687 44.4266C31.3687 42.0328 34.425 39.8984 34.425 37.5594C34.425 35.3531 32.2313 34.6313 31.9422 32.375C31.9203 32.1 31.6922 31.8859 31.4141 31.8859C31.3781 31.8859 31.3438 31.8891 31.3094 31.8969H31.3125C30.7484 32.0938 30.0969 32.2266 29.4203 32.2703L29.3984 32.2719C28.7 32.2266 28.0469 32.0938 27.4312 31.8813L27.4844 31.8969C27.4547 31.8906 27.4203 31.8875 27.3844 31.8875C27.1062 31.8875 26.8781 32.1016 26.8562 32.375C26.5687 34.6328 24.3734 35.3547 24.3734 37.5609C24.3734 39.9 27.4312 42.0328 27.4312 44.4281C27.4312 46.6391 24.6906 49.0672 25.2141 52.4469C24.6411 52.3427 24.0729 52.2177 23.5094 52.0719C23.0297 49.3578 25.825 46.7469 25.825 44.3953C25.825 41.8594 22.8734 39.9484 22.8734 37.5609C22.8734 35.1734 25.6266 34.3391 25.6266 31.4281C25.6266 28.9609 23.5766 26.8922 23.5766 24.3453C23.575 24.2797 23.5734 24.2031 23.5734 24.125C23.5734 22.3531 24.2188 20.7313 25.2859 19.4813L25.2781 19.4906C25.3812 19.3609 25.2609 19.2297 25.1125 19.3391L25.0141 19.4141C23.4141 20.6578 22.3922 22.5797 22.3797 24.7391C22.3797 27.5234 24.1641 28.9188 24.1641 31.4391C24.1641 33.9594 21.2547 35.1016 21.2547 37.5578C21.2547 40.0125 24.1156 41.9688 24.1156 44.2453C24.1156 46.3281 21.3797 48.9609 21.6891 51.5125C21.1401 51.3208 20.5984 51.1094 20.0641 50.8781C20.1 48.3516 22.5297 46.225 22.5297 44.0969C22.5297 41.7562 19.7734 39.8359 19.7734 37.5578C19.7734 35.2797 22.7359 33.9203 22.7359 31.475C22.7359 29.0313 21.2656 27.6453 21.2656 25.15C21.2656 25.1469 21.2656 25.1422 21.2656 25.1391C21.2656 23.0844 22.075 21.2203 23.3937 19.8469L23.3906 19.85C23.0859 20.0094 22.8234 20.1953 22.5875 20.4078L22.5906 20.4047C21.1687 21.6844 20.2703 23.5219 20.2406 25.5688V25.5734C20.2406 28.2281 21.525 29.4188 21.525 31.4891C21.525 33.5609 18.5062 35.1953 18.5062 37.5563C18.5062 39.9156 21.1234 41.9219 21.1234 43.9203C21.1234 45.7109 18.8703 48.0969 18.7937 50.2781C18.3354 50.0438 17.8849 49.7948 17.4422 49.5312C17.6125 47.5469 19.7391 45.9625 19.7391 43.9656C19.6969 43.2781 19.4672 42.6516 19.1016 42.1281L19.1094 42.1391C19.9844 44.8969 16.7391 46.5266 16.4469 48.9031C15.8563 48.5104 15.2844 48.0917 14.7313 47.6469C15.0094 47.1375 15.375 46.7109 15.8109 46.3719L15.8203 46.3656C15.612 46.1177 15.412 45.8635 15.2203 45.6031C14.7 45.9688 14.2703 46.4266 13.9453 46.9563L13.9344 46.9766C13.4573 46.5557 12.9979 46.1167 12.5563 45.6594C12.9625 44.9969 13.5469 44.4781 14.2437 44.1641L14.2672 44.1547C14.088 43.8526 13.9182 43.5453 13.7578 43.2328C12.9469 43.575 12.2781 44.1219 11.8 44.8109L11.7906 44.825C11.3792 44.3552 10.987 43.8703 10.6141 43.3703C11.2953 42.9234 11.8578 41.8047 13.0875 41.7578C13.1906 42.0141 13.299 42.2682 13.4125 42.5203C13.5125 42.7625 13.7484 42.9313 14.0219 42.9313C14.0547 42.9313 14.0859 42.9281 14.1172 42.925H14.1141C15.8063 42.7484 17.2922 41.9781 18.3828 40.8297L18.3859 40.8266C17.7484 39.9063 17.3313 38.7891 17.2344 37.5797L17.2328 37.5563C17.2328 35.4234 20.2609 33.6328 20.2609 31.5625C20.2609 29.4922 19.2172 28.3094 19.2172 26.0672C19.2953 24.0469 20.0781 22.2234 21.3266 20.8219L21.3187 20.8297C21.0156 21.0203 20.7531 21.2344 20.5172 21.475L20.5156 21.4766C19.2406 22.7656 18.4313 24.5172 18.3641 26.4578V26.4703C18.3641 28.8516 19.2578 29.8297 19.2578 31.5953C19.2578 33.2219 15.8109 35.4828 16.2 37.7031C15.1813 38.6594 13.8172 39.2563 12.3125 39.2875H12.3063C12.4156 39.7469 12.5422 40.2016 12.6859 40.6516C11.2719 40.7266 10.625 41.9328 9.87812 42.3313C9.50937 41.776 9.16458 41.2063 8.84375 40.6219C10.1031 40.4906 10.4812 38.8734 12.2406 38.9953C12.1479 38.5661 12.0708 38.1339 12.0094 37.6984C9.98594 37.5625 9.52656 39.2703 8.19688 39.3422C7.9125 38.737 7.65469 38.1208 7.42344 37.4937L11.85 35.8047L11.8406 35.2578C11.8406 34.9266 11.85 34.6 11.8688 34.275C9.58906 34.2219 8.89531 36.1781 6.92656 35.9844C6.74427 35.3604 6.5875 34.7297 6.45625 34.0922C8.94531 34.4 9.84844 32.3078 12.0875 32.3094C12.2078 31.6031 12.3453 31.0078 12.5125 30.4266L12.4828 30.5469C9.76875 30.4297 8.82031 32.7906 6.17188 32.3516C6.10208 31.7995 6.0526 31.2453 6.02344 30.6891C9.10312 31.0328 10.2578 28.5016 13.0625 28.8109C13.3688 28.0406 13.6766 27.4016 14.0234 26.7859L13.9813 26.8687C10.4656 26.25 9.27188 29.1906 6 28.7391C6.37344 16.1016 16.7062 6 29.3984 6C42.0906 6 52.4266 16.1031 52.7969 28.7078V28.7422C49.5234 29.1938 48.3297 26.2547 44.8156 26.8719C45.1188 27.4031 45.4266 28.0422 45.6938 28.7031L45.7344 28.8141C48.5375 28.5031 49.6922 31.0359 52.7719 30.6922H52.7766ZM29.4031 26.2656C29.1187 26.2656 29.0562 26.1578 28.8609 26.1594C28.6172 26.1766 28.4 26.2812 28.2391 26.4422C28.2437 26.5141 28.2734 26.5781 28.3203 26.6266C28.7359 26.6891 28.9234 26.9203 29.4047 26.9203C29.8859 26.9203 30.0719 26.6891 30.4891 26.6266C30.5344 26.5781 30.5641 26.5141 30.5688 26.4422V26.4406C30.4078 26.2797 30.1906 26.1734 29.9484 26.1578H29.9453C29.75 26.1562 29.6875 26.2641 29.4031 26.2641V26.2656ZM27.7047 27.7109C27.6328 27.7391 27.5766 27.7937 27.5484 27.8625V27.8641C28.0391 28.2422 28.3781 29.1016 29.4031 29.1016C30.4281 29.1016 30.7672 28.2422 31.2578 27.8641C31.2297 27.7922 31.1734 27.7375 31.1031 27.7109C30.6313 27.8078 30.0875 27.8641 29.5328 27.8641C29.4875 27.8641 29.4422 27.8641 29.3969 27.8625H29.4031C29.3641 27.8625 29.3187 27.8641 29.2734 27.8641C28.7188 27.8641 28.1766 27.8078 27.6531 27.7031L27.7047 27.7125V27.7109ZM31.7563 16.1203C31.0484 15.9906 30.2344 15.9172 29.4031 15.9172C28.5719 15.9172 27.7562 15.9906 26.9656 16.1328L27.0484 16.1203C26.9312 16.1406 26.8859 16.0266 26.975 15.9594C27.0562 15.9 29.4016 14.1141 29.4016 14.1141L31.8266 15.9594C31.9188 16.0266 31.8734 16.1422 31.7563 16.1203Z" fill="#00643C"/>
</g>
<defs>
<clipPath id="clip0_146_179">
<rect width="44" height="44" fill="white" transform="translate(8 8)"/>
</clipPath>
</defs>
</svg>
