<svg width="60" height="60" viewBox="0 0 60 60" fill="none" xmlns="http://www.w3.org/2000/svg">
<rect width="60" height="60" fill="#EE2E24"/>
<path d="M46.1749 43.7416C48.4041 43.0067 50.139 40.5152 50.5558 37.3829V36.4775H39.127V43.7424H46.1733L46.1749 43.7416ZM50.5574 23.1574V22.3382C50.1193 19.0695 48.2555 16.4937 45.8793 15.8886H39.1286V23.1566L50.5574 23.1574ZM10.3344 36.4783V37.3759C10.7482 40.5113 12.4828 43.0071 14.7185 43.7424H21.7293V36.4775L10.3344 36.4783ZM15.0109 15.8941C12.6379 16.4995 10.7689 19.0766 10.3344 22.35V23.1633H21.7293V15.8953L15.0109 15.8941ZM50.5655 26.1878H39.1367V33.4558H50.5655V26.1878ZM24.8486 43.7463H36.0287V36.4815H24.8486V43.7463ZM36.0287 15.8878H24.8486V23.1558H36.0287V15.8878ZM10.344 33.4464H21.739V26.1784H10.344V33.4464Z" fill="white"/>
</svg>
