<svg width="60" height="60" viewBox="0 0 60 60" fill="none" xmlns="http://www.w3.org/2000/svg">
<rect width="60" height="60" fill="#A11D2B"/>
<g clip-path="url(#clip0_150_692)">
<path d="M42.533 45.2468H50.2953L37.3087 13.5123L30.7884 16.7522L35.3242 27.8011L33.2183 32.9379L25.0915 13L18.5037 16.0876L23.7956 28.8257L23.7686 28.8811C20.5017 36.9255 16.5058 39.1269 16.1143 39.2792C15.1828 39.6669 14.1839 39.8885 13.1309 39.8885C12.8069 39.8885 12.4964 39.8746 12.1859 39.8331L9 46.839C10.053 47.4621 11.2409 47.8221 12.4964 47.8221C14.0894 47.8221 15.5473 47.2544 16.7623 46.3129L16.7488 46.3406C16.7488 46.3406 19.7592 44.776 22.9856 36.2055C22.9856 36.1916 24.1736 33.464 24.808 31.7195L24.8755 31.5256L30.5454 45.2606H38.2942L34.2983 35.5963L36.4177 30.4595L42.533 45.2468Z" fill="white"/>
</g>
<defs>
<clipPath id="clip0_150_692">
<rect width="42" height="35" fill="white" transform="translate(9 13)"/>
</clipPath>
</defs>
</svg>
