<svg width="60" height="60" viewBox="0 0 60 60" fill="none" xmlns="http://www.w3.org/2000/svg">
<rect width="60" height="60" fill="white"/>
<g clip-path="url(#clip0_150_1054)">
<path d="M12.3464 35.869C12.2454 35.9181 12.1473 35.9673 11.9973 36.0683C11.9973 36.0683 11.4027 36.863 10.8054 37.857C10.2082 38.7527 9.61363 39.845 9.21545 40.6424C9.11727 40.7407 9.01636 40.9893 9.01636 40.9893C10.0609 40.2437 11.3509 39.845 13.0418 39.5965C15.1254 39.348 17.5609 39.3999 20.0945 39.4982C22.2791 39.5965 24.6136 39.7467 26.9973 39.8969C30.9709 40.0935 36.0873 38.0564 38.8664 35.2736C38.8664 35.2736 38.7682 35.372 38.7191 35.372C33.5536 38.4032 28.8845 37.7095 24.6627 36.964C21.4827 36.366 18.3054 35.1726 15.4745 35.1726C14.3809 35.1726 13.3391 35.372 12.3464 35.869Z" fill="url(#paint0_linear_150_1054)"/>
<path fill-rule="evenodd" clip-rule="evenodd" d="M12.4446 35.8198C15.8727 34.1785 20.2909 36.1666 24.6627 36.964C28.8846 37.7095 33.5536 38.4031 38.7191 35.3719C38.7682 35.3719 38.8664 35.2736 38.8664 35.2736C38.8664 35.2736 37.8246 35.3719 36.2346 35.4211C34.6446 35.4211 31.3691 35.3227 29.3809 35.1234C25.2082 34.7766 22.08 34.5281 19.5464 34.5281C16.5164 34.5281 14.3318 34.8749 12.4446 35.8198Z" fill="url(#paint1_linear_150_1054)"/>
<path d="M46.9636 21.4037C44.8773 21.6522 42.4445 21.6003 39.9109 21.502C37.7264 21.4037 35.3918 21.2535 33.0082 21.1033C29.0345 20.9067 23.9182 22.9439 21.1364 25.7266C21.1364 25.7266 21.2345 25.6283 21.2864 25.6283C26.4518 22.5971 31.1182 23.2907 35.34 24.0362C39.7609 24.8336 44.1818 26.8216 47.61 25.1313C47.7573 25.0821 47.8582 25.033 48.0054 24.9319C48.0054 24.9319 48.5536 24.1373 49.1973 23.1432C49.7945 22.2475 50.3918 21.1552 50.7873 20.3578C50.8363 20.2595 50.9864 20.011 50.9864 20.011C49.9445 20.7565 48.6518 21.1552 46.9636 21.4037Z" fill="url(#paint2_linear_150_1054)"/>
<path fill-rule="evenodd" clip-rule="evenodd" d="M21.2864 25.6284C21.2345 25.6284 21.1364 25.7267 21.1364 25.7267C21.1364 25.7267 22.1782 25.6284 23.7682 25.5792C25.3582 25.5792 28.6364 25.6775 30.6218 25.8769C39.8618 26.6716 44.0836 26.8709 47.5582 25.1805C44.1327 26.8218 39.7118 24.8337 35.34 24.0363C33.5045 23.6895 31.6173 23.3918 29.58 23.3918C26.9973 23.3918 24.2154 23.938 21.2864 25.6284Z" fill="url(#paint3_linear_150_1054)"/>
<path d="M31.2191 28.2636C26.9482 27.914 22.5764 27.6164 18.6027 28.1625C16.9482 29.8211 15.4091 31.5451 13.9855 33.3347C18.0082 31.8928 23.2718 32.3407 28.7346 32.7367C33.0573 33.0862 37.4264 33.3839 41.4 32.8377C42.3927 31.8928 45.2755 28.6104 45.9709 27.6655C41.9973 29.1074 36.6818 28.7114 31.2191 28.2636Z" fill="url(#paint4_linear_150_1054)"/>
</g>
<defs>
<linearGradient id="paint0_linear_150_1054" x1="29.9754" y1="44.2225" x2="16.8975" y2="31.1125" gradientUnits="userSpaceOnUse">
<stop stop-color="#B8C746"/>
<stop offset="1" stop-color="#169244"/>
</linearGradient>
<linearGradient id="paint1_linear_150_1054" x1="38.8664" y1="35.9181" x2="12.3464" y2="35.9181" gradientUnits="userSpaceOnUse">
<stop stop-color="#B8C746"/>
<stop offset="0.8" stop-color="#169244"/>
<stop offset="1" stop-color="#169244"/>
</linearGradient>
<linearGradient id="paint2_linear_150_1054" x1="31.6173" y1="18.0202" x2="41.0659" y2="27.4566" gradientUnits="userSpaceOnUse">
<stop stop-color="#1F9CD7"/>
<stop offset="1" stop-color="#09409C"/>
</linearGradient>
<linearGradient id="paint3_linear_150_1054" x1="21.1364" y1="24.7327" x2="47.61" y2="24.7327" gradientUnits="userSpaceOnUse">
<stop stop-color="#1F9CD7"/>
<stop offset="0.8" stop-color="#09409C"/>
<stop offset="1" stop-color="#09409C"/>
</linearGradient>
<linearGradient id="paint4_linear_150_1054" x1="26.1027" y1="26.6224" x2="35.5022" y2="36.0069" gradientUnits="userSpaceOnUse">
<stop stop-color="#FF521C"/>
<stop offset="0.9" stop-color="#FF9836"/>
<stop offset="1" stop-color="#FF9836"/>
</linearGradient>
<clipPath id="clip0_150_1054">
<rect width="42" height="21" fill="white" transform="translate(9 20)"/>
</clipPath>
</defs>
</svg>
