<svg width="60" height="60" viewBox="0 0 60 60" fill="none" xmlns="http://www.w3.org/2000/svg">
<rect width="60" height="60" fill="#0F4E8A"/>
<g clip-path="url(#clip0_1534_8445)">
<path d="M43.9815 34.9982L42.5048 33.0219L40.9982 35.0131H41.998V38H35.2017V35.511H35.1457C34.3809 37.2712 32.5903 37.996 30.6938 37.9273C29.78 37.9273 28.7512 37.6107 28.0014 37.1786V38L24.8762 37.9781L24.8622 32.7441L24.8452 32.7282C24.6033 33.2539 24.4083 33.8174 24.0914 34.3202C22.5188 37.0631 19.5875 38.1513 16.6032 37.8198C14.0939 37.6027 11.7074 35.725 10.6877 33.3554C9.57797 30.7987 9.78092 27.2842 11.5185 25.0828C13.385 22.5809 16.4003 21.5534 19.3536 22.1786C20.1262 22.366 20.8672 22.6649 21.553 23.0657V22.0701H24.0024V27.0731L20.7812 27.0482C19.8444 25.7509 18.3718 25.508 16.8372 25.8465C15.3715 26.1253 14.0349 27.5619 13.7929 29.0593C13.483 30.7678 14.1628 32.4196 15.5525 33.4002C16.6482 34.2505 18.4168 34.2824 19.5565 33.5167C20.1464 33.1533 20.6562 32.6127 21.0032 32.0263H28.6803C28.8002 32.8616 28.8272 33.694 29.3861 34.3431C29.689 34.6288 30.1259 34.7135 30.5578 34.6288C31.0267 34.5591 31.5096 34.143 31.6455 33.6631C31.7825 33.1623 31.6455 32.6207 31.2976 32.2652C31.0197 31.9795 30.6708 31.8401 30.3309 31.6858C28.4723 31.0217 26.1909 30.2182 25.474 28.0169C24.9142 26.1093 25.572 24.1091 27.1136 22.9194C28.3663 21.9467 30.4208 21.6529 31.8345 22.4952L32.2504 22.773C32.3174 22.765 32.2884 22.6804 32.2964 22.6267V22.0701H35.0087V27.3917H31.9544C31.7745 26.635 31.8265 25.6772 31.0267 25.275C30.5798 25.1057 29.9679 25.0898 29.613 25.4612C29.2731 25.7619 29.1371 26.194 29.2131 26.6589C29.2811 27.2842 29.878 27.6774 30.4148 27.8397C31.5775 28.2877 32.7782 28.6123 33.79 29.4307C35.3026 30.5279 35.8775 32.9462 35.3946 34.7672C35.3706 34.815 35.3646 34.9225 35.3646 34.9225L35.4386 34.9773H36.5043L40.4933 29.7244L36.9412 25.0649L35.9935 25.057V22.0701H41.992V25.057H40.9982L42.4979 27.0482L43.9975 25.057H42.9917V22.0701H49.99V25.057H48.4964L44.7913 29.7782L48.4964 35.0131H50L49.996 38H42.9977V35.0131H43.9915L43.9815 34.9982Z" fill="#FEFEFD"/>
</g>
<defs>
<clipPath id="clip0_1534_8445">
<rect width="40" height="16" fill="white" transform="translate(10 22)"/>
</clipPath>
</defs>
</svg>
