<svg width="60" height="60" viewBox="0 0 60 60" fill="none" xmlns="http://www.w3.org/2000/svg">
<rect width="60" height="60" fill="#FF5A5F"/>
<g clip-path="url(#clip0_150_667)">
<path d="M48.3033 38.4284C48.1031 37.9479 47.9029 37.4274 47.7027 36.987C47.3824 36.2663 47.0621 35.5856 46.7818 34.9449L46.7417 34.9049C43.979 28.8989 41.016 22.8128 37.8929 16.8068L37.7728 16.5666C37.4525 15.966 37.1321 15.3253 36.8118 14.6847C36.4114 13.964 36.011 13.2032 35.3704 12.4825C34.0891 10.8809 32.2472 10 30.2853 10C28.2833 10 26.4815 10.8809 25.1602 12.4024C24.5596 13.1231 24.1191 13.8839 23.7187 14.6046C23.3984 15.2452 23.0781 15.8859 22.7578 16.4865L22.6376 16.7267C19.5546 22.7327 16.5516 28.8188 13.7888 34.8248L13.7487 34.9049C13.4685 35.5455 13.1481 36.2262 12.8278 36.9469C12.6276 37.3874 12.4274 37.8679 12.2272 38.3884C11.7067 39.8699 11.5465 41.2713 11.7467 42.7127C12.1872 45.7157 14.1892 48.2382 16.952 49.3594C17.993 49.7998 19.0741 50 20.1952 50C20.5155 50 20.9159 49.96 21.2362 49.9199C22.5576 49.7598 23.9189 49.3193 25.2402 48.5586C26.8819 47.6376 28.4434 46.3163 30.2052 44.3944C31.967 46.3163 33.5686 47.6376 35.1702 48.5586C36.4915 49.3193 37.8528 49.7598 39.1742 49.9199C39.4945 49.96 39.8949 50 40.2152 50C41.3363 50 42.4575 49.7998 43.4585 49.3594C46.2613 48.2382 48.2232 45.6757 48.6637 42.7127C48.984 41.3113 48.8238 39.9099 48.3033 38.4284ZM30.2452 40.5105C28.0831 37.7878 26.6817 35.2252 26.2012 33.0631C26.001 32.1421 25.961 31.3413 26.0811 30.6206C26.1612 29.98 26.4014 29.4194 26.7217 28.9389C27.4825 27.8579 28.7638 27.1772 30.2452 27.1772C31.7267 27.1772 33.048 27.8178 33.7688 28.9389C34.0891 29.4194 34.3293 29.98 34.4094 30.6206C34.5295 31.3413 34.4895 32.1822 34.2893 33.0631C33.8088 35.1852 32.4074 37.7477 30.2452 40.5105ZM46.2212 42.3924C45.9409 44.4745 44.5395 46.2763 42.5776 47.0771C41.6166 47.4775 40.5756 47.5976 39.5345 47.4775C38.5335 47.3574 37.5325 47.037 36.4915 46.4364C35.0501 45.6356 33.6086 44.3944 31.9269 42.5526C34.5696 39.3093 36.1712 36.3463 36.7718 33.7037C37.0521 32.4625 37.0921 31.3413 36.972 30.3003C36.8118 29.2993 36.4515 28.3784 35.8909 27.5776C34.6497 25.7758 32.5676 24.7347 30.2452 24.7347C27.9229 24.7347 25.8408 25.8158 24.5996 27.5776C24.039 28.3784 23.6787 29.2993 23.5185 30.3003C23.3584 31.3413 23.3984 32.5025 23.7187 33.7037C24.3193 36.3463 25.961 39.3493 28.5636 42.5926C26.9219 44.4344 25.4404 45.6757 23.999 46.4765C22.958 47.0771 21.957 47.3974 20.956 47.5175C19.8749 47.6376 18.8338 47.4775 17.9129 47.1171C15.951 46.3163 14.5495 44.5145 14.2693 42.4324C14.1491 41.4314 14.2292 40.4304 14.6296 39.3093C14.7497 38.9089 14.9499 38.5085 15.1502 38.028C15.4304 37.3874 15.7508 36.7067 16.0711 36.026L16.1111 35.9459C18.8739 29.98 21.8368 23.8939 24.9199 17.968L25.04 17.7277C25.3604 17.1271 25.6807 16.4865 26.001 15.8859C26.3213 15.2452 26.6817 14.6446 27.1221 14.1241C27.963 13.1632 29.0841 12.6426 30.3253 12.6426C31.5666 12.6426 32.6877 13.1632 33.5285 14.1241C33.969 14.6446 34.3293 15.2452 34.6497 15.8859C34.97 16.4865 35.2903 17.1271 35.6106 17.7277L35.7307 17.968C38.7738 23.9339 41.7367 30.02 44.4995 35.986V36.026C44.8198 36.6667 45.1001 37.3874 45.4204 38.028C45.6206 38.5085 45.8208 38.9089 45.9409 39.3093C46.2613 40.3503 46.3814 41.3514 46.2212 42.3924Z" fill="white"/>
</g>
<defs>
<clipPath id="clip0_150_667">
<rect width="38" height="40" fill="white" transform="translate(11 10)"/>
</clipPath>
</defs>
</svg>
