<svg width="60" height="60" viewBox="0 0 60 60" fill="none" xmlns="http://www.w3.org/2000/svg">
<rect width="60" height="60" fill="#4F1395"/>
<g clip-path="url(#clip0_146_147)">
<path d="M25.0216 20.0398C26.4711 19.0511 28.3385 19.4397 28.026 19.7377C27.4302 20.3059 28.2229 20.1379 28.3084 21.1863C28.3713 21.9585 28.1194 22.3837 27.9026 22.6257C27.4501 22.6849 26.9001 22.7955 26.2377 23.0111C25.8458 23.1388 25.5051 23.2804 25.2065 23.4229C25.1279 23.3715 25.0424 23.3086 24.9412 23.2212C23.9188 22.3338 23.953 20.769 25.0216 20.0398ZM33.6798 26.1522C33.9428 25.9482 35.138 25.5637 36.2446 25.4327C36.8256 25.3643 37.6539 25.3245 37.8304 25.4235C38.1812 25.6173 38.1812 26.2174 37.9409 26.7717C37.591 27.5768 37.0964 28.4665 36.5362 28.5396C35.6224 28.6603 34.7586 28.1653 33.7722 27.4278C33.42 27.1627 33.2037 26.5205 33.6798 26.1522ZM35.347 18.3122C36.6962 18.9405 36.5196 20.1361 36.557 20.8384C36.5672 21.0401 36.564 21.1762 36.5469 21.2696C36.3601 21.1683 36.0648 21.0938 35.5966 21.1146C35.4597 21.1202 35.3266 21.1364 35.1977 21.1567C34.6999 20.8898 34.4022 20.3674 34.13 19.8122C34.105 19.7608 34.0856 19.715 34.0671 19.6706C34.0592 19.6503 34.0509 19.6285 34.0431 19.61C34.0398 19.5998 34.0375 19.592 34.0338 19.5827C33.8845 19.1085 33.9848 19.0136 34.0477 18.8674C34.1129 18.718 34.3564 18.5949 33.9964 18.4704C33.9654 18.4589 33.927 18.4524 33.8836 18.4441C34.1221 18.148 34.8362 18.0762 35.347 18.3122ZM27.9918 32.6065C26.5381 31.6723 25.0341 30.3324 24.3764 29.5908C24.2659 29.5075 24.2839 29.1378 24.2839 29.1378C24.8774 29.5996 27.3396 31.3605 29.9433 32.1646C30.8617 32.4487 32.2709 32.556 33.4935 31.8625C34.4276 31.3323 35.5522 30.4083 36.2233 29.4561L36.3463 29.6694C36.3416 29.811 36.0329 30.5008 35.8757 30.778C36.1595 30.9413 36.3712 30.9857 36.6869 31.0722L38.8427 30.7359C39.6164 29.4848 40.1711 27.4671 39.5799 25.5466C39.2425 24.4449 37.4833 22.2514 37.3571 22.1306C36.9152 21.7054 37.4311 20.063 36.5552 18.271C35.6294 16.3755 33.2171 14.3989 32.1693 13.5388C32.478 13.7646 34.3796 14.5322 35.2661 15.6033C35.3493 15.4927 35.3835 14.9176 35.4597 14.7718C34.6985 13.7739 34.6393 11.9981 34.6393 11.5234C34.6393 10.6531 34.1974 9.66672 34.1974 9.66672C34.1974 9.66672 34.9587 10.27 35.1556 11.3092C35.3881 12.5399 35.8836 13.5092 36.539 14.3295C37.7796 15.8762 38.9 16.6697 39.4662 16.0983C40.1438 15.4117 38.7789 12.3405 37.0354 10.6263C35.0003 8.6257 34.4683 8.88341 33.2744 9.31C32.3218 9.65006 31.8069 12.3576 29.3239 12.3039C28.9033 12.2549 27.8199 12.2285 27.2842 12.2332C27.5633 11.8431 27.8028 11.5419 27.8028 11.5419C27.8028 11.5419 26.9698 11.8774 26.2599 12.3026L26.2054 12.2207C26.4448 11.7154 26.7022 11.3962 26.7022 11.3962C26.7022 11.3962 26.0366 11.7964 25.4293 12.2757C25.5398 11.6733 25.9581 11.2916 25.9581 11.2916C25.9581 11.2916 25.1173 11.4434 24.0464 12.6227C22.8294 12.9559 22.5368 13.1747 21.5671 13.6045C19.99 13.2603 19.2463 12.7046 18.5373 11.6817C17.9974 10.9002 17.0365 10.7818 16.0547 11.1857C14.6233 11.7779 12.8128 12.589 12.8128 12.589C12.8128 12.589 13.403 12.5649 14.0182 12.5913C13.1761 12.9105 12.3672 13.3496 12.3672 13.3496C12.3672 13.3496 12.7615 13.3357 13.2482 13.344C12.9122 13.6235 12.7264 13.7567 12.406 13.9691C11.636 14.5289 11.0116 15.1758 11.0116 15.1758C11.0116 15.1758 11.5343 14.9375 12.0039 14.8038C11.6757 15.5565 11.025 16.1108 11.1447 17.0325C11.2598 17.8741 12.2919 19.6077 13.624 20.6718C13.7391 20.7644 15.5588 22.4499 16.9316 21.7577C18.3034 21.0665 18.8446 20.4507 19.0702 19.5064C19.3355 18.4219 19.1844 17.6015 18.6177 15.2475C18.431 14.4706 17.9443 12.8707 17.7095 12.1055L17.7617 12.068C18.2105 13.016 19.3591 15.5149 19.8218 17.1935C20.5442 19.8108 20.3186 21.1387 19.9882 21.6254C18.9912 23.0935 16.4365 23.2873 15.2745 22.4739C15.0966 25.2921 15.7256 26.533 15.9387 27.158C15.8329 27.8766 16.2979 29.2109 16.2979 29.2109C16.2979 29.2109 16.3501 28.6044 16.5632 28.2846C16.62 28.9976 16.9792 29.8448 16.9792 29.8448C16.9792 29.8448 16.9574 29.3215 17.1206 28.8695C17.3508 29.2595 17.5195 29.352 17.7372 29.6449C17.9549 30.4069 18.3912 30.9635 18.3912 30.9635C18.3912 30.9635 18.3205 30.555 18.3593 30.1298C19.4247 31.1541 19.6082 32.649 19.7141 33.7978C20.0126 36.956 14.7393 39.4674 13.7173 41.443C12.9427 42.6131 12.4786 44.4643 13.7904 45.5557C16.9611 48.1916 15.7432 48.917 17.3304 50.0756C19.5079 51.6644 22.2322 50.9528 23.1594 49.6606C24.4503 47.8598 24.1189 46.1614 23.6392 44.5726C23.2643 43.3303 22.2456 41.2663 20.9856 40.4677C19.6979 39.6511 18.4458 39.4984 17.385 39.6076L17.483 39.4947C19.0087 39.1912 20.6038 39.3578 21.758 40.1027C23.0683 40.9457 24.2668 42.3915 24.8936 44.6077C25.6045 44.5064 25.7048 44.4606 26.3556 44.3681L24.8904 32.9512L27.9918 32.6065ZM28.8386 46.9169L28.6699 45.3337L31.965 40.3026L35.7056 41.3963L38.9222 36.0187L42.7779 38.5648L45.7074 32.4149L46.7488 43.6148L28.8386 46.9169ZM46.7876 30.1215L35.0142 32.2576C34.7225 32.6338 34.0015 33.2945 33.6548 33.4666C32.1679 34.2161 31.163 33.9991 30.2945 33.7733C29.7362 33.6318 29.4126 33.5522 28.949 33.3435L26.0755 33.7382L27.8199 48.3063L47.9884 44.6669L46.7876 30.1215Z" fill="white"/>
</g>
<defs>
<clipPath id="clip0_146_147">
<rect width="37" height="42" fill="white" transform="translate(11 9)"/>
</clipPath>
</defs>
</svg>
