<svg width="60" height="60" viewBox="0 0 60 60" fill="none" xmlns="http://www.w3.org/2000/svg">
<rect width="60" height="60" fill="black"/>
<path d="M29.9881 21.4501C30.5043 20.6193 31.3608 19.7499 32.283 19.3823C33.8703 18.6704 35.9979 18.9765 37.293 20.103C38.5462 21.2222 39.182 22.7561 38.882 24.471C39.1894 24.4151 39.4997 24.2211 39.8251 24.1107C41.7704 23.5695 43.8279 24.1564 45.0753 25.8005C46.0122 26.9742 46.257 28.7977 45.6946 30.2155C45.4155 30.9287 44.9395 31.5699 44.3206 32.1171L44.383 32.1789C46.1929 32.2655 47.9715 33.651 48.5205 35.3496C49.1158 37.063 48.5922 38.8939 47.321 40.147C46.2825 41.1589 44.9471 41.509 43.4626 41.4795H16.5126C14.2997 41.5265 12.5899 40.5602 11.6694 38.6206C10.9472 36.9556 11.3038 34.8261 12.6525 33.557C13.5029 32.6804 14.5683 32.3214 15.7172 32.1407C14.4162 30.9509 13.7894 29.3229 14.155 27.5771C14.4162 26.1624 15.6396 24.7299 17.045 24.2357C18.2832 23.7504 19.9604 23.8356 21.0944 24.4944L21.1347 24.4458C20.7931 22.5207 21.6585 20.7839 23.2786 19.719C24.723 18.7559 27.0325 18.7807 28.4469 19.8046C29.0826 20.1883 29.6062 20.8472 29.9881 21.4501Z" fill="white"/>
<path d="M37.6181 22.1693C38.1971 23.3208 37.857 24.8298 37.2527 25.8637L32.5768 36.2335L32.5363 36.282L30.8461 25.7623C30.7105 24.7521 31.8054 24.3211 32.4499 23.8357C32.4172 23.6873 32.2515 23.6946 32.1472 23.6255L30.5673 23.6092L30.5193 23.5621C30.5282 22.2562 31.2415 21.0502 32.4499 20.4164C33.7124 19.6973 35.4907 19.8928 36.5857 20.815C37.0304 21.206 37.4049 21.6603 37.6181 22.1693Z" fill="#645FAA"/>
<path d="M29.0034 21.809C29.3855 22.5061 29.6064 23.2975 29.472 24.1738L27.5653 36.2188C27.5756 36.2334 27.5579 36.2497 27.5428 36.2569L27.049 35.2878L22.27 24.768C21.8254 23.4135 22.2373 21.9973 23.2383 21.0265C24.2469 20.0177 25.906 19.7441 27.225 20.2912C27.9233 20.5884 28.5902 21.1356 29.0034 21.809Z" fill="#C9234A"/>
<path d="M44.5352 26.8798C45.1782 27.9606 45.0336 29.5962 44.3187 30.5992C43.8758 31.3036 43.1445 31.6551 42.5253 32.1169L32.6231 38.8172H32.6005L32.711 38.4967L37.96 26.8181C38.7463 25.4415 40.2473 24.7444 41.8347 24.9546C42.9224 25.1504 44.01 25.8474 44.5352 26.8798Z" fill="#0089CF"/>
<path d="M22.0403 26.8182L27.5026 38.816H27.4147L16.4023 31.3346C15.2816 30.4037 14.8223 29.0095 15.2027 27.6006C15.4877 26.5446 16.3768 25.5579 17.4347 25.1665C19.1667 24.5415 21.1181 25.2062 22.0403 26.8182Z" fill="#F36F21"/>
<path d="M47.4088 35.3495C47.9577 36.4922 47.7415 38.057 46.9567 39.029C46.1781 39.9601 45.1365 40.4689 43.9145 40.4365L32.1725 40.4439L42.009 33.698C42.9701 33.0877 44.4308 32.9772 45.4797 33.4714C46.2897 33.7847 47.0522 34.5671 47.4088 35.3495Z" fill="#0DB14B"/>
<path d="M12.6376 35.3495C12.0902 36.4922 12.3049 38.057 13.0912 39.029C13.87 39.9601 14.9084 40.4689 16.132 40.4365L27.8739 40.4439L18.0373 33.698C17.0764 33.0877 15.6159 32.9772 14.5684 33.4714C13.758 33.7847 12.9958 34.5671 12.6376 35.3495Z" fill="#FDB913"/>
</svg>
