<svg width="60" height="60" viewBox="0 0 60 60" fill="none" xmlns="http://www.w3.org/2000/svg">
<rect width="60" height="60" fill="#472380"/>
<path d="M24.2238 38.5194C23.5512 39.1227 22.58 39.3237 21.9719 39.4006C20.7327 39.5536 19.4512 39.1469 18.6335 38.1726C17.9619 37.3766 17.6174 36.3458 16.9618 35.5216C15.9262 34.217 14.2707 33.3627 12.5653 33.6646C9.19428 34.2691 7.66484 38.1551 9.57064 40.8507C12.2947 44.7031 18.4205 44.0361 21.5645 41.3673C22.5435 40.5375 23.4575 39.614 24.2238 38.5194Z" fill="white"/>
<path d="M46.2717 36.9013C43.7377 34.1543 42.945 29.5861 42.789 26.5499C42.6545 23.9268 42.7981 19.3839 44.8889 18.0617C44.1889 17.1919 42.8083 16.8415 41.7591 16.8415C39.4017 16.8415 38.2654 18.3938 37.4592 19.51C37.1929 19.8788 33.2289 25.285 33.2289 25.285C33.2289 25.285 29.8947 20.1856 29.4849 19.573C28.9186 18.7277 27.8581 17.1743 25.9943 16.9055C25.1918 16.7896 23.1098 16.6843 21.9766 18.2219C23.9299 19.767 23.8811 23.7018 23.4569 26.3881C22.1846 34.4516 18.7141 35.1942 18.7141 35.1942C20.4918 39.9406 25.0699 38.0653 26.3637 34.281C27.2015 31.8212 27.7425 28.7075 27.8673 26.1254L32.8914 33.7448C32.8914 33.7448 38.5804 26.1492 38.5804 26.1559C37.6434 39.589 42.3098 43.397 46.3904 43.397C50.4745 43.397 51.8643 39.7046 51.8643 39.7046C49.656 39.5727 47.7234 38.4748 46.2717 36.9013Z" fill="white"/>
</svg>
