<svg width="60" height="60" viewBox="0 0 60 60" fill="none" xmlns="http://www.w3.org/2000/svg">
<rect width="60" height="60" fill="#E0FF4F"/>
<g clip-path="url(#clip0_1772_9198)">
<path fill-rule="evenodd" clip-rule="evenodd" d="M49.9972 13.4754H43.3314V41.626C43.3314 41.626 49.9972 41.2234 49.9972 33.5637V13.4754ZM10.0024 26.4208V46.4935H16.6682V18.3429C16.6682 18.3429 20.6734 17.7844 22.7915 22.6961L31.1861 42.0831C32.5592 45.2208 34.8071 46.9818 37.9817 46.9818C41.1562 46.9818 43.3314 44.4026 43.3314 41.639C43.3314 41.639 39.3263 42.1974 37.1952 37.2883L28.8136 17.9013C27.4405 14.7637 25.1926 13.0026 22.018 13.0026C18.8435 13.0026 16.6682 15.5792 16.6682 18.3429C16.6553 18.3429 10.0024 18.7585 10.0024 26.4208Z" fill="#052B42"/>
</g>
<defs>
<clipPath id="clip0_1772_9198">
<rect width="40" height="34" fill="white" transform="translate(10 13)"/>
</clipPath>
</defs>
</svg>
