<svg width="60" height="60" viewBox="0 0 60 60" fill="none" xmlns="http://www.w3.org/2000/svg">
<rect width="60" height="60" fill="#1A64B7"/>
<g clip-path="url(#clip0_168_709)">
<path d="M44.5441 31.1366H43.3191L44.793 28.3516H44.8168L44.5441 31.1366ZM17.8064 31.1366H16.5814L18.0544 28.3516H18.0782L17.8064 31.1366ZM48.799 32.1881L50.3316 27.2282H48.2182L46.4757 32.864L46.4366 27.2282H43.8906L40.429 32.7481L42.1351 27.2282H40.1288L39.2646 30.6891H39.2282L38.6492 27.2282H36.4677L34.9341 32.1881H31.9173L32.3303 30.8519H34.9723L35.3537 29.6169H32.7116L33.0686 28.4632H35.7946L36.1768 27.2282H31.605H31.3365H26.1278L25.9572 27.7812C25.6486 27.3485 24.9829 27.0863 23.9546 27.0863C22.3138 27.0863 21.1084 27.68 20.7494 28.8423C20.5816 29.3866 20.6926 29.7649 20.9807 30.0782C21.28 30.3915 21.7591 30.6303 22.3315 30.8856C22.8172 31.1167 23.3878 31.314 23.2265 31.8333C23.1306 32.1457 22.8172 32.4512 22.3203 32.4512C21.6519 32.4512 21.5801 32.137 21.6902 31.7822L21.8252 31.3443L19.8665 31.3468L19.7304 31.7864L19.6987 27.2281H17.1526L15.6927 29.5562L16.0861 28.2822H12.5789L13.0311 26.8214H16.8422L17.354 25.1648H10.7293L8.17761 33.4213H10.9903L12.0671 29.9387H15.4522L13.2678 33.4221H15.3934L16.0153 32.227H17.6728L17.6039 33.4221H19.7416L19.739 32.8215C20.0037 33.2577 20.6898 33.5641 21.9344 33.5641C23.6899 33.5641 24.8552 32.9046 25.2216 31.7172C25.4537 30.9677 25.2925 30.5558 24.8972 30.2433C24.501 29.93 23.882 29.7154 23.1949 29.3701C22.8257 29.1719 22.6057 28.9824 22.78 28.612C22.9135 28.3402 23.2182 28.1749 23.647 28.2C24.3407 28.2329 24.1635 28.7271 24.0759 29.0897H26.0225C26.1092 28.8672 26.1538 28.6578 26.1586 28.4631H27.405L25.8714 33.4221H27.9858L29.5185 28.4631H30.9551L29.4225 33.4221H34.5537H34.6562H36.5655L37.44 29.9699L37.4688 29.9527L38.0571 33.4214H40.0064H40.2208H42.1328L42.7547 32.2262H44.4123L44.3422 33.4214H46.3037H46.48H50.9996L51.3819 32.1873L48.799 32.1881Z" fill="white"/>
</g>
<defs>
<clipPath id="clip0_168_709">
<rect width="44" height="9" fill="white" transform="translate(8 25)"/>
</clipPath>
</defs>
</svg>
