<svg width="60" height="60" viewBox="0 0 60 60" fill="none" xmlns="http://www.w3.org/2000/svg">
<rect width="60" height="60" fill="#D63E35"/>
<path d="M50.2683 38.4239C48.7894 40.3279 46.5477 42.2136 43.4679 44.288C33.4787 51.0745 20.5965 51.0745 15.275 44.288C13.128 41.4588 12.382 38.0649 12.9412 34.4835C13.8752 28.6392 18.3561 22.7948 25.5431 17.9882C27.7836 16.4799 29.5583 16.4799 30.5844 16.763C31.8921 17.1391 32.6393 17.9882 32.9196 18.5543C33.3866 19.4952 34.5983 21.8526 30.024 25.5283C20.7833 32.6922 17.6089 39.1971 20.9689 43.8149C24.4236 48.5284 35.7191 48.3397 43.2811 43.3432C45.6149 41.7419 47.6685 40.4223 49.6287 38.0649C49.8143 37.7831 50.0958 37.7831 50.1879 37.8775C50.376 38.0649 50.4694 38.3492 50.2813 38.4436L50.2683 38.4239Z" fill="#FEFEFD"/>
<path d="M10.2624 20.9733C11.7685 19.106 14.009 17.2203 16.9953 15.1459C27.0753 8.35675 39.9575 8.35675 45.2764 15.2403C47.4234 17.9751 48.1694 21.369 47.6103 25.0473C46.6762 30.8 42.1966 36.6457 35.0096 41.4536C32.7705 42.9631 30.9971 42.9631 29.9696 42.6814C28.6632 42.3984 27.916 41.4549 27.6358 40.9831C27.0766 39.9466 25.9558 37.5892 30.53 34.0052C39.7694 26.7443 42.9439 20.2382 39.5839 15.712C36.1305 10.9029 24.8362 11.1859 17.2768 16.1838C14.9417 17.6921 12.8881 19.106 10.9292 21.369C10.649 21.6521 10.4621 21.6521 10.2753 21.559C10.1819 21.369 10.0885 21.1817 10.2753 20.993L10.2624 20.9733Z" fill="#FEFEFD"/>
</svg>
