<svg width="60" height="60" viewBox="0 0 60 60" fill="none" xmlns="http://www.w3.org/2000/svg">
<rect width="60" height="60" fill="white"/>
<path d="M22.7877 48.7421C22.8948 48.5858 22.9407 48.4921 23.0172 48.4139C24.9751 46.3356 26.9331 44.2572 28.891 42.1789C30.6502 40.3037 32.4551 38.4753 34.1531 36.5689C35.1473 35.4438 36.111 34.2874 36.5546 32.756C37.4112 29.7869 36.8911 27.1929 34.7649 24.927C33.8165 23.9269 32.7305 23.2081 31.4303 22.8643C30.6196 22.6455 29.7629 22.5361 28.9216 22.5049C27.2696 22.4424 25.6329 22.4892 23.9808 22.4892C23.6749 22.4892 23.3537 22.4892 23.0172 22.4892C26.3212 19.1295 29.5488 15.8323 32.914 12.3944C33.2812 12.4569 33.8624 12.4725 34.3825 12.6757C35.7745 13.1914 37.2124 13.5977 38.5432 14.3165C41.1742 15.7385 43.3463 17.6606 45.1054 20.114C46.4821 22.0204 47.3693 24.13 47.92 26.3959C48.1494 27.3335 48.2106 28.318 48.2871 29.3025C48.3483 30.0682 48.2871 30.8339 48.3024 31.5996C48.333 33.1154 47.9811 34.5374 47.5223 35.9595C47.1092 37.2408 46.6503 38.491 45.9161 39.6161C45.3043 40.5537 44.7077 41.5069 43.9734 42.3351C42.8721 43.6165 41.6637 44.8354 40.2105 45.7261C39.2927 46.2887 38.3596 46.8044 37.3806 47.2419C35.8204 47.9451 34.199 48.4608 32.4857 48.6483C31.6903 48.7265 30.8796 48.8046 30.0842 48.8046C27.9427 48.8202 25.7858 48.8202 23.6443 48.8046C23.3996 48.789 23.1242 48.7577 22.7877 48.7421Z" fill="#A96C13"/>
<path d="M28.4015 38.3503C28.2332 38.6159 28.1568 38.8035 28.0191 38.9597C27.0248 40.0536 26.0152 41.1318 25.0057 42.2101C23.6443 43.6634 22.2982 45.1166 20.9368 46.5543C20.4014 47.1325 19.8354 47.6794 19.2848 48.2576C18.9788 48.5858 18.627 48.8045 18.1681 48.8045C15.7818 48.7889 13.3803 48.7889 10.994 48.7889C10.9328 48.7889 10.8564 48.742 10.7187 48.6795C10.6881 48.492 10.5963 48.2576 10.5963 48.0076C10.581 45.1166 10.581 42.2413 10.5963 39.3504C10.5963 39.0379 10.6728 38.7097 10.7187 38.3503H28.4015Z" fill="black"/>
<path d="M28.4474 25.552C25.1434 29.0368 21.9617 32.3653 18.7341 35.7719C16.1184 35.7719 13.4262 35.7719 10.734 35.7719C10.5199 34.9124 10.5046 26.474 10.7034 25.5052C11.4682 25.302 24.6845 25.177 27.6979 25.3645C27.8814 25.3645 28.0803 25.4583 28.4474 25.552Z" fill="black"/>
<path d="M28.5392 12.2225C25.2657 15.676 22.0229 19.0826 18.8106 22.4736C16.0725 22.4736 13.3956 22.4736 10.7187 22.4736C10.5045 21.6454 10.4281 15.2853 10.5963 12.3162C10.6269 12.285 10.6422 12.2537 10.6728 12.2381C10.7034 12.2225 10.734 12.1912 10.7646 12.1912C16.5161 12.1756 22.2829 12.1756 28.0344 12.16C28.1874 12.1756 28.325 12.2069 28.5392 12.2225Z" fill="black"/>
</svg>
