<svg width="60" height="60" viewBox="0 0 60 60" fill="none" xmlns="http://www.w3.org/2000/svg">
<rect width="60" height="60" fill="white"/>
<g clip-path="url(#clip0_150_922)">
<path d="M37.6188 29.9155L49 48.7493H38.1444L27.1153 29.9155L38.1444 11.0791H49L37.6188 29.9155Z" fill="#3E3234"/>
<path d="M15.9943 28.5673C14.3624 28.5673 13.0433 27.2402 13.0433 25.599C13.0433 23.9578 14.3624 22.6333 15.9943 22.6333C17.6262 22.6333 18.948 23.9578 18.948 25.599C18.948 27.2402 17.6262 28.5673 15.9943 28.5673Z" fill="#964B3C"/>
<path d="M22.0384 28.57C21.1317 28.57 20.4012 27.8338 20.4012 26.9235C20.4012 26.0132 21.1317 25.2771 22.0384 25.2771C22.9423 25.2771 23.6755 26.0132 23.6755 26.9235C23.6755 27.8338 22.9423 28.57 22.0384 28.57Z" fill="#50D2F5"/>
<path d="M24.4901 17.8865C22.7978 22.5224 23.7885 24.0475 23.7885 24.0475C20.2278 23.4617 14.5096 19.4116 14.5674 15.3641C14.6252 12.5461 16.6092 10.1424 19.4105 10.0237C24.9553 9.73083 25.2469 15.7757 24.4901 17.8865Z" fill="#75C447"/>
<path d="M19.7022 49.9816C15.6764 50.2165 12.5256 47.0476 12.0578 43.0581C11.3588 37.2508 19.4105 30.5014 24.4901 29.2112C24.4901 29.2112 23.6729 31.4988 25.8908 37.9552C26.9393 41.0634 27.7565 49.6307 19.7022 49.9816Z" fill="#DF2655"/>
</g>
<defs>
<clipPath id="clip0_150_922">
<rect width="37" height="40" fill="white" transform="translate(12 10)"/>
</clipPath>
</defs>
</svg>
