<svg width="60" height="60" viewBox="0 0 60 60" fill="none" xmlns="http://www.w3.org/2000/svg">
<rect width="60" height="60" fill="#07080B"/>
<g clip-path="url(#clip0_150_1086)">
<path d="M47.3526 41.1518C47.4819 41.3186 47.6888 41.1385 47.6001 40.9895L33.9287 17.0488L31.3541 12.5286C31.312 12.4641 31.2547 12.4111 31.1874 12.3747C31.1201 12.3382 31.0449 12.3192 30.9687 12.3196C30.8932 12.3232 30.8209 12.3512 30.7623 12.3997C30.7038 12.4481 30.6621 12.5144 30.6434 12.5887L26.9146 25.1584C26.3232 27.1332 27.8016 29.1081 29.8144 29.1081H33.5433C35.7039 29.1081 37.7759 30.0666 39.1962 31.7123L47.3636 41.1685L47.3526 41.1518Z" fill="white"/>
<path d="M24.329 25.9503L27.2398 16.1805C27.3 16.0004 27.0624 15.9114 26.9737 16.0604L10.3718 45.1195C10.2535 45.3285 10.3422 45.4787 10.4309 45.5687C10.5196 45.6577 10.6674 45.7478 10.8744 45.6577L10.9347 45.6288L25.6716 40.1512C26.086 40.0007 26.4626 39.7591 26.7745 39.4437C27.0864 39.1284 27.3258 38.7469 27.4757 38.3267C27.6256 37.9065 27.6823 37.4579 27.6417 37.0128C27.6011 36.5678 27.4642 36.1374 27.2409 35.7523L25.0211 31.9215C24.5175 31.0271 24.1976 30.0384 24.0805 29.015C23.9634 27.9916 24.0517 26.9548 24.3399 25.9669L24.329 25.9503Z" fill="white"/>
<path d="M49.3359 47.856C49.5538 47.8727 49.6721 47.7237 49.7017 47.6336C49.7312 47.5435 49.7904 47.3934 49.6425 47.2144L38.5447 34.3756C37.1834 32.7899 34.668 33.0301 33.632 34.8537L31.5316 38.5655C30.6443 40.0958 29.2648 41.2688 27.6253 41.8869L12.2061 47.6025C12.0583 47.6636 12.0878 47.9027 12.2652 47.9027L49.3457 47.8727L49.3359 47.856Z" fill="white"/>
</g>
<defs>
<clipPath id="clip0_150_1086">
<rect width="40" height="36" fill="white" transform="translate(10 12)"/>
</clipPath>
</defs>
</svg>
