<svg width="60" height="60" viewBox="0 0 60 60" fill="none" xmlns="http://www.w3.org/2000/svg">
<rect width="60" height="60" fill="#1254FF"/>
<g clip-path="url(#clip0_150_1083)">
<mask id="mask0_150_1083" style="mask-type:alpha" maskUnits="userSpaceOnUse" x="16" y="22" width="35" height="16">
<path d="M16.2806 37.7814H50.9583V22H33.6194H16.2806V37.7814Z" fill="white"/>
</mask>
<g mask="url(#mask0_150_1083)">
<path fill-rule="evenodd" clip-rule="evenodd" d="M50.531 29.8894C48.4256 34.243 39.1131 37.7873 29.8017 37.7873C20.4809 37.7873 14.6027 34.243 16.7079 29.8894C18.8048 25.5528 28.1253 22 37.4377 22C46.7583 22 52.6355 25.5528 50.531 29.8894Z" fill="#151317"/>
<path fill-rule="evenodd" clip-rule="evenodd" d="M37.0925 22.3972C46.0344 22.3972 51.6741 25.7205 49.6545 29.7773C47.6346 33.8498 38.7005 37.1658 29.7669 37.1658C20.8246 37.1658 15.1851 33.8498 17.2051 29.7773C19.2169 25.7205 28.1586 22.3972 37.0925 22.3972Z" fill="#647387"/>
</g>
<path fill-rule="evenodd" clip-rule="evenodd" d="M35.6672 23.0906C43.7457 23.0906 48.8304 26.0631 46.9929 29.6976C45.1629 33.3398 37.0768 36.3126 29.0142 36.3126C20.9358 36.3126 15.8507 33.3398 17.6805 29.6976C18.8684 27.3545 22.6304 25.2981 27.3115 24.1187C27.644 24.0306 27.9847 23.9591 28.3253 23.8793C30.6536 23.3775 33.1644 23.0906 35.6672 23.0906Z" fill="#151317"/>
<path fill-rule="evenodd" clip-rule="evenodd" d="M46.2378 26.7202C46.6395 27.3823 46.7136 28.1274 46.3956 28.9087C46.098 29.5 45.7563 29.9761 45.2472 30.4445C42.6063 32.866 36.6636 34.6721 30.7288 34.6721C23.7312 34.6721 19.3185 32.1625 20.9127 29.0859C22.0081 26.9679 25.72 25.0425 30.1652 24.091C30.6882 23.9792 31.2195 23.8913 31.7589 23.8113C30.7131 23.9154 29.6898 24.067 28.6837 24.2827C23.7554 25.3618 19.5763 27.1042 18.3599 29.5175C16.5967 33.026 21.4843 35.8868 29.2474 35.8868C35.608 35.8868 41.9781 33.969 45.0378 31.3394C45.3834 31.0443 45.7878 30.6273 46.1052 30.1831C46.2363 30.0033 46.3509 29.8213 46.4469 29.6376C46.9947 28.5825 46.89 27.5835 46.2378 26.7202Z" fill="#1254FF"/>
<path fill-rule="evenodd" clip-rule="evenodd" d="M13.682 29.1569C13.5389 29.3834 13.3952 29.5506 13.2551 29.654L13.2495 29.6582C13.0877 29.7862 12.8759 29.8512 12.6198 29.8512C12.4534 29.8512 12.3392 29.8178 12.3073 29.761C12.304 29.7525 12.229 29.5444 12.4606 28.7935C12.6138 28.3179 12.7924 27.9781 12.9913 27.7835C13.2382 27.5348 13.5032 27.419 13.8252 27.419C13.9263 27.419 14.0104 27.4347 14.0615 27.4631C14.0998 27.4849 14.1301 27.5021 14.1421 27.6421L14.1889 28.1903H16.7566C16.5954 28.4052 16.4575 28.6368 16.3468 28.8793H13.8574L13.682 29.1569ZM19.9064 29.3163C19.8106 29.6231 19.6871 29.846 19.5494 29.9604C19.4086 30.0738 19.2903 30.1245 19.1656 30.1245C19.1398 30.1245 19.1233 30.1221 19.1137 30.1199C19.1082 30.0861 19.1 29.9658 19.1857 29.6909C19.2675 29.4109 19.3877 29.1984 19.533 29.0763C19.6661 28.9692 19.7894 28.9214 19.9326 28.9214C19.9499 28.9214 19.9624 28.9224 19.9711 28.9235C19.9762 28.9616 19.9798 29.0747 19.9064 29.3163ZM26.038 29.3101C25.9591 29.5812 25.8532 29.7832 25.7396 29.8791C25.6471 29.9576 25.5688 29.9957 25.5005 29.9957C25.4936 29.9957 25.4873 29.9955 25.4817 29.9953C25.4831 29.948 25.4939 29.8532 25.5427 29.6948C25.6486 29.3476 25.7682 29.1986 25.8501 29.1346C25.9436 29.0578 26.024 29.0176 26.1085 29.0057C26.1035 29.0631 26.0872 29.1586 26.0399 29.3039L26.038 29.3101ZM44.0802 26.6138L44.7609 24.4175L41.2611 25.8783L41.1717 25.9157L40.9557 26.6138H40.2618L40.2333 26.7053C39.9405 26.5735 39.6516 26.5093 39.3507 26.5093C39.1146 26.5093 38.8905 26.5445 38.6844 26.6138H35.9432L35.4245 28.2811C35.4251 28.2129 35.4233 28.1432 35.4187 28.0726C35.3941 27.7106 35.2677 27.39 35.063 27.1703C34.8081 26.8772 34.4485 26.6882 33.9943 26.6084C33.6577 26.5408 33.2011 26.5093 32.5573 26.5093C32.1806 26.5093 31.8249 26.535 31.4698 26.5881C31.0683 26.6504 30.7738 26.7323 30.5433 26.8454C30.2015 26.9947 29.9182 27.1761 29.7016 27.3845C29.5107 27.5596 29.3363 27.7827 29.1687 28.0655C29.1344 27.8883 29.0818 27.7178 29.012 27.5579C28.79 27.0795 28.2902 26.5093 27.1692 26.5093C26.8923 26.5093 26.6309 26.5443 26.3712 26.6164L26.3721 26.6138H23.3782L22.9472 27.9992C22.8972 27.8559 22.8314 27.7167 22.7514 27.585C22.3004 26.8712 21.4675 26.5093 20.2758 26.5093C19.2984 26.5093 18.4284 26.7728 17.6902 27.2927C17.5541 27.389 17.4238 27.4923 17.3027 27.5997V27.5909C17.3027 26.569 17.0269 25.846 16.4598 25.3809C15.9656 24.9565 15.2371 24.7501 14.2324 24.7501C13.0339 24.7501 11.9788 25.0751 11.0965 25.7164C10.219 26.3596 9.59483 27.276 9.24146 28.4399C8.95544 29.3487 8.92337 30.1289 9.14606 30.7589C9.38462 31.417 9.77941 31.8859 10.3193 32.1523C10.8045 32.3965 11.4657 32.5201 12.2845 32.5201C12.9656 32.5201 13.5616 32.4239 14.0555 32.234C14.5539 32.0518 15.026 31.7674 15.4588 31.3882C15.6562 31.2096 15.8734 30.9729 16.0721 30.72C16.1778 31.2147 16.4356 31.5643 16.6351 31.7719C17.1229 32.263 17.8482 32.5121 18.7908 32.5121C19.7813 32.5121 20.6617 32.246 21.4073 31.721C21.5922 31.5907 21.7651 31.4477 21.9219 31.2951L21.0334 34.1512H24.1653L24.7328 32.3378C25.006 32.4535 25.3205 32.5121 25.668 32.5121C26.3973 32.5121 27.0796 32.2665 27.6961 31.782C27.8722 31.6429 28.0379 31.4827 28.189 31.3055C28.2447 31.5339 28.3556 31.7419 28.5186 31.924C28.8629 32.3197 29.4033 32.5121 30.1705 32.5121C30.6766 32.5121 31.151 32.4359 31.5807 32.2854C31.6513 32.2603 31.7235 32.2316 31.7956 32.2L31.8644 32.4073H37.2656L37.8755 30.4453C38.1295 29.6332 38.3621 29.3088 38.4776 29.1883C38.5893 29.0879 38.664 29.0741 38.7281 29.0741C38.7354 29.0741 38.8048 29.0762 38.9739 29.1513L39.3951 29.3387L39.5952 29.0959L40.1841 29.0974L39.9255 29.9288C39.7236 30.548 39.6555 30.9896 39.7113 31.3183C39.7695 31.7204 39.9849 32.0532 40.3176 32.2552C40.6017 32.4305 41.0124 32.5121 41.6103 32.5121C42.0465 32.5121 42.5331 32.4598 43.0575 32.3566L43.3119 32.3065L43.4475 32.2797L43.9716 29.6918L43.0335 29.9687L43.3023 29.098H44.331L45.102 26.6138H44.0802Z" fill="#363A3F"/>
<path fill-rule="evenodd" clip-rule="evenodd" d="M13.9444 29.0384L13.8156 29.2423C13.6618 29.4854 13.5048 29.6672 13.3473 29.7834C13.1571 29.934 12.9122 30.0105 12.6197 30.0105C12.3846 30.0105 12.2327 29.9523 12.1684 29.8372C12.1472 29.8 12.0543 29.5726 12.3091 28.7467C12.4709 28.2445 12.6632 27.8819 12.8812 27.6687C13.1546 27.3933 13.4634 27.2595 13.8251 27.2595C13.9564 27.2595 14.0617 27.2811 14.1378 27.3233C14.2283 27.3746 14.2837 27.4409 14.2998 27.6283L14.3341 28.0308H17.0931C16.8208 28.3334 16.6056 28.6703 16.4497 29.0384H13.9444ZM20.0579 29.3623C19.9509 29.7046 19.8137 29.9472 19.6506 30.0827C19.4805 30.2197 19.3265 30.2837 19.1656 30.2837C19.0227 30.2837 18.9935 30.2334 18.9739 30.1995C18.9663 30.1869 18.9036 30.0635 19.0346 29.6425C19.126 29.3301 19.2596 29.0983 19.4309 28.9544C19.594 28.8231 19.7533 28.7619 19.9325 28.7619C20.0643 28.7619 20.0872 28.8012 20.1122 28.8441C20.1151 28.8486 20.1803 28.9597 20.0579 29.3623ZM25.3913 29.6474C25.4847 29.3415 25.6097 29.1206 25.7535 29.0081C25.891 28.8951 26.021 28.8424 26.1628 28.8424C26.2355 28.8424 26.2404 28.8513 26.2571 28.882C26.2716 28.9067 26.2901 29.0464 26.1899 29.3547C26.101 29.66 25.9806 29.8836 25.8414 30.001C25.7192 30.1046 25.6076 30.1549 25.5004 30.1549C25.3709 30.1549 25.3493 30.1185 25.3351 30.0947C25.3346 30.0936 25.2851 29.9926 25.3913 29.6474ZM28.9149 29.5693C28.9785 29.342 29.0216 29.1205 29.0435 28.9086L29.8745 28.9934C29.5723 29.0967 29.3265 29.2242 29.1278 29.3803C29.0525 29.4389 28.9815 29.5022 28.9149 29.5693ZM44.2146 28.9385L44.8866 26.773H43.8648L44.5089 24.6951L41.3007 26.0342L41.0721 26.773H40.3782L40.3293 26.9301C40.0026 26.7542 39.6819 26.6685 39.3507 26.6685C39.1221 26.6685 38.9071 26.7037 38.7106 26.773H36.0595L34.4878 31.8254L34.4732 31.7361C34.4381 31.5227 34.4346 31.4165 34.4377 31.3655C34.4414 31.312 34.4608 31.1978 34.5309 30.9593L35.1598 28.9339C35.2476 28.6672 35.2806 28.3889 35.2606 28.0829C35.2384 27.7561 35.1263 27.4697 34.9462 27.2778C34.7155 27.0114 34.3859 26.8389 33.9679 26.7655C33.6385 26.6993 33.1903 26.6685 32.5572 26.6685C32.1884 26.6685 31.8403 26.6937 31.4929 26.7457C31.1063 26.8058 30.8251 26.8835 30.6105 26.9896C30.284 27.1317 30.0149 27.3033 29.8116 27.499C29.5949 27.698 29.3985 27.9643 29.2109 28.3133L29.0592 28.5954C29.0595 28.2417 28.9951 27.9151 28.8666 27.6211C28.6649 27.1866 28.2067 26.6685 27.1691 26.6685C26.8075 26.6685 26.4657 26.733 26.1289 26.865L26.1572 26.773H23.4944L22.9098 28.6522C22.8949 28.2946 22.7966 27.9646 22.6159 27.6676C22.1971 27.0046 21.4097 26.6685 20.2757 26.6685C19.3314 26.6685 18.4921 26.9223 17.7809 27.4232C17.5436 27.5913 17.3312 27.7754 17.1443 27.9751V27.5908C17.1443 26.6197 16.8875 25.9372 16.3604 25.5046C15.8939 25.104 15.1978 24.9093 14.2324 24.9093C13.0678 24.9093 12.0439 25.2242 11.189 25.8454C10.3403 26.4677 9.73597 27.3563 9.39294 28.486C9.11724 29.362 9.08431 30.1088 9.29529 30.7056C9.51904 31.3228 9.88703 31.7613 10.3886 32.009C10.8527 32.2423 11.4905 32.3606 12.2845 32.3606C12.9461 32.3606 13.523 32.2679 13.9985 32.0852C14.4806 31.9089 14.9369 31.634 15.3552 31.2676C15.6332 31.016 15.9402 30.6563 16.1816 30.3024C16.1997 30.9511 16.4938 31.3957 16.7492 31.6614C17.2048 32.12 17.8918 32.3526 18.7908 32.3526C19.7483 32.3526 20.598 32.0961 21.3166 31.5902C21.7178 31.3075 22.0502 30.9708 22.3085 30.5858L21.2488 33.9917H24.0491L24.6357 32.1176C24.671 32.1357 24.7071 32.1527 24.743 32.1681C25.0081 32.2906 25.3193 32.3526 25.6679 32.3526C26.361 32.3526 27.0106 32.1184 27.5987 31.6562C27.8651 31.4457 28.1031 31.1879 28.3082 30.888C28.2876 31.3235 28.4679 31.6292 28.6359 31.8168C28.9496 32.1773 29.4516 32.3526 30.1705 32.3526C30.6587 32.3526 31.1157 32.2793 31.5288 32.1348C31.6457 32.0931 31.7668 32.0413 31.8895 31.9803L31.9784 32.2478H37.1492L37.7242 30.3978C37.9771 29.5895 38.2144 29.2306 38.367 29.0739C38.4878 28.9637 38.5993 28.9146 38.7281 28.9146C38.7596 28.9146 38.8532 28.9234 39.0378 29.0054L39.3498 29.1441L39.5211 28.9364L40.3995 28.9383L40.077 29.9757C39.882 30.5729 39.8157 30.9916 39.8676 31.2926C39.9186 31.6479 40.1073 31.9413 40.3992 32.1187C40.6581 32.2783 41.043 32.3526 41.6103 32.3526C42.036 32.3526 42.5127 32.3013 43.0269 32.2001L43.3134 32.1437L43.764 29.919L43.0674 30.1247C42.9678 30.154 42.8775 30.1778 42.798 30.195L43.1856 28.9385H44.2146Z" fill="#151317"/>
<path fill-rule="evenodd" clip-rule="evenodd" d="M15.0628 30.9403C15.4618 30.5789 15.933 29.9764 16.1483 29.4785H14.1846C14.0168 29.7438 13.8252 29.9764 13.6179 30.1293C13.3542 30.3379 13.0191 30.4505 12.6198 30.4505C12.2129 30.4505 11.9334 30.3143 11.7895 30.0568C11.6381 29.792 11.6778 29.3096 11.8932 28.6108C12.0769 28.0406 12.3007 27.6229 12.5719 27.3577C12.9311 26.996 13.3542 26.8194 13.8252 26.8194C14.0329 26.8194 14.2083 26.8596 14.3525 26.94C14.6077 27.0846 14.7116 27.3096 14.7357 27.5908H16.7071C16.7071 26.9641 16.5954 26.265 16.0765 25.8395C15.6932 25.5102 15.0785 25.3494 14.2325 25.3494C13.1468 25.3494 12.2207 25.6389 11.4466 26.2012C10.6801 26.763 10.1294 27.5671 9.80996 28.6188C9.56234 29.4061 9.53018 30.0568 9.70637 30.5548C9.88968 31.0609 10.1773 31.4144 10.5843 31.6152C10.9835 31.8161 11.55 31.9206 12.2846 31.9206C12.8835 31.9206 13.4102 31.8401 13.8492 31.6716C14.2881 31.511 14.6953 31.2621 15.0628 30.9403ZM19.9242 30.4263C20.1559 30.2338 20.3396 29.9286 20.4752 29.4946C20.5947 29.1012 20.6029 28.8036 20.4832 28.6108C20.3712 28.4177 20.1876 28.3219 19.9326 28.3219C19.653 28.3219 19.3972 28.4177 19.1577 28.6108C18.9183 28.8118 18.7348 29.1089 18.6152 29.5182C18.4874 29.9286 18.4793 30.2259 18.5992 30.4263C18.7109 30.6193 18.9026 30.7238 19.1657 30.7238C19.4375 30.7238 19.6847 30.6193 19.9242 30.4263ZM20.2759 27.1087C21.2575 27.1087 21.912 27.3736 22.2471 27.9039C22.5108 28.3378 22.5505 28.8681 22.3509 29.4946C22.1277 30.2015 21.7043 30.78 21.0658 31.2298C20.4272 31.6795 19.6684 31.9126 18.7909 31.9126C18.0002 31.9126 17.4255 31.7198 17.0586 31.3503C16.6113 30.8845 16.4997 30.2737 16.7391 29.5182C16.9544 28.8198 17.3857 28.2413 18.0326 27.7834C18.6707 27.3339 19.4212 27.1087 20.2759 27.1087ZM26.6097 29.4786C26.4904 29.8883 26.3227 30.1693 26.1231 30.338C25.9236 30.5069 25.7162 30.5952 25.5005 30.5952C25.253 30.5952 25.0693 30.5069 24.9655 30.3297C24.8538 30.1534 24.8621 29.8803 24.9734 29.5182C25.0934 29.1253 25.261 28.8358 25.4769 28.6674C25.692 28.4905 25.9154 28.4023 26.1629 28.4023C26.3786 28.4023 26.5384 28.4827 26.6343 28.6591C26.7375 28.8358 26.7301 29.1089 26.6097 29.4786ZM28.4704 27.8074C28.2544 27.3418 27.8235 27.1087 27.1692 27.1087C26.8417 27.1087 26.5223 27.1728 26.2032 27.3097C25.9715 27.4059 25.692 27.5985 25.357 27.8878L25.5643 27.2131H23.8159L21.8442 33.5517H23.7284L24.4151 31.3583C24.5426 31.5431 24.7183 31.6795 24.9258 31.7681C25.1333 31.864 25.3808 31.9126 25.668 31.9126C26.2587 31.9126 26.8179 31.7115 27.3287 31.3102C27.8475 30.9004 28.2227 30.322 28.462 29.5587C28.6779 28.8599 28.6779 28.2815 28.4704 27.8074ZM32.2934 30.4426C32.413 30.3059 32.5013 30.1213 32.5735 29.9044L32.6604 29.6231C32.3732 29.7113 32.0862 29.7837 31.7828 29.8559C31.3753 29.9525 31.1042 30.0408 30.9767 30.1372C30.8406 30.2338 30.7533 30.338 30.7209 30.4588C30.6729 30.5952 30.6892 30.7078 30.7692 30.7959C30.8406 30.8845 30.9767 30.9327 31.1758 30.9327C31.392 30.9327 31.599 30.8845 31.8067 30.788C32.014 30.6914 32.1737 30.579 32.2934 30.4426ZM34.6161 27.5671C34.7365 27.6953 34.8084 27.8801 34.8242 28.113C34.84 28.354 34.816 28.5788 34.7448 28.7958L34.1135 30.8282C34.0499 31.0449 34.01 31.2137 34.0016 31.3345C33.9938 31.4548 34.01 31.6153 34.0415 31.8079H32.2934C32.2533 31.687 32.2379 31.5996 32.2379 31.535C32.2379 31.4705 32.2455 31.3742 32.2614 31.2459C31.9507 31.4628 31.6549 31.6232 31.3831 31.7198C31.0161 31.8481 30.6089 31.9126 30.1705 31.9126C29.5876 31.9126 29.1888 31.7842 28.9649 31.5269C28.7418 31.2778 28.6857 30.9649 28.8053 30.5873C28.9092 30.242 29.1089 29.9525 29.3961 29.7277C29.6832 29.5023 30.1383 29.3338 30.7611 29.2293C31.5032 29.0933 31.9824 28.9964 32.2139 28.9485C32.437 28.8921 32.6772 28.8198 32.94 28.7396C33.0045 28.5228 33.0045 28.3699 32.94 28.2815C32.8685 28.1932 32.7165 28.1531 32.4773 28.1531C32.1661 28.1531 31.9267 28.2011 31.743 28.2896C31.599 28.362 31.4636 28.4986 31.3271 28.6993L29.5956 28.5228C29.7554 28.2251 29.9232 27.9924 30.1067 27.8239C30.2824 27.655 30.5134 27.5105 30.793 27.39C30.9841 27.2936 31.2477 27.229 31.5593 27.1809C31.8787 27.133 32.2057 27.1087 32.5572 27.1087C33.1155 27.1087 33.5632 27.133 33.8822 27.1972C34.2012 27.2532 34.4491 27.3736 34.6161 27.5671ZM36.3809 27.2131H38.1291L37.8977 27.96C38.1693 27.6388 38.4166 27.414 38.6324 27.2936C38.8476 27.1649 39.087 27.1087 39.3507 27.1087C39.6303 27.1087 39.9012 27.1891 40.1805 27.3497L39.2148 28.603C39.0153 28.5143 38.8558 28.4746 38.7282 28.4746C38.4807 28.4746 38.2647 28.5705 38.065 28.7558C37.7942 29.0288 37.5381 29.5273 37.3073 30.2656L36.8278 31.8079H34.9515L36.3809 27.2131ZM43.2702 27.2131L43.8129 25.462L41.6577 26.3617L41.394 27.2131H40.6995L40.3005 28.4985H40.9944L40.4922 30.1131C40.3248 30.6273 40.2603 30.9972 40.3005 31.2298C40.3326 31.4547 40.4439 31.6316 40.6278 31.7435C40.8114 31.8567 41.1393 31.9126 41.6103 31.9126C42.0087 31.9126 42.456 31.864 42.9429 31.7681L43.1904 30.5468C42.9183 30.6273 42.7113 30.6676 42.5751 30.6676C42.4161 30.6676 42.3279 30.6113 42.2961 30.5148C42.2802 30.4505 42.2961 30.322 42.36 30.1294L42.8634 28.4985H43.893L44.292 27.2131H43.2702Z" fill="white"/>
</g>
<defs>
<clipPath id="clip0_150_1083">
<rect width="42" height="16" fill="white" transform="translate(9 22)"/>
</clipPath>
</defs>
</svg>
