<svg width="60" height="60" viewBox="0 0 60 60" fill="none" xmlns="http://www.w3.org/2000/svg">
<rect width="60" height="60" fill="#63A844"/>
<g clip-path="url(#clip0_150_1000)">
<path d="M25.2441 30.7858L25.175 30.8527C25.1404 30.8861 24.2587 31.7384 23.9475 32.5907H22.4087C22.7546 31.3207 24.4487 30.017 24.4659 30.0004L24.5522 29.9336L24.4659 29.8667C24.4485 29.8498 22.9792 28.6636 22.4259 27.3264H23.9818C24.3447 28.3793 25.1226 28.9976 25.1572 29.0144L25.2089 29.0644L25.2607 29.0144C25.2952 28.981 26.0906 28.3627 26.4707 27.3264H28.0266C27.4387 28.6633 25.9694 29.8498 25.952 29.8667L25.8657 29.9336L25.952 30.0004C25.9694 30.0173 27.6636 31.3038 28.0437 32.5907H26.505C26.2112 31.755 25.295 30.8861 25.2604 30.8527L25.2429 30.7858H25.2441ZM19.4353 32.691C20.5937 32.691 21.337 32.223 21.5962 32.0224C21.4233 31.939 20.8183 31.6547 20.7317 31.6047C20.6108 31.7384 20.213 31.8721 19.5562 31.8721C18.7437 31.8721 18.3979 31.5378 18.3979 30.4016V30.3181H18.4842C19.8154 30.3181 20.818 30.0841 21.6825 29.5493C21.7 29.4824 21.7517 29.2653 21.7517 29.0813C21.7517 28.2121 21.1467 27.2096 19.4525 27.2096C17.6546 27.2096 16.7729 28.1121 16.7729 29.9501C16.7729 31.8718 17.5683 32.691 19.4353 32.691ZM18.3982 29.5661C18.3982 28.7638 18.5191 27.9784 19.4874 27.9784C19.9886 27.9784 20.3345 28.2124 20.3345 28.8141C20.3345 28.9978 20.2307 29.1984 20.2307 29.2153L20.2133 29.2487L20.1616 29.2821C19.6774 29.5327 19.4182 29.6664 18.4845 29.6664H18.3982V29.5661ZM15.632 29.9001C15.632 28.0453 14.6637 27.1427 12.6932 27.1427H10.5494V32.691H12.6932C14.664 32.6744 15.632 31.7718 15.632 29.9001ZM12.1227 27.995H12.7452C12.8835 27.995 13.0219 28.0116 13.1773 28.0618C13.6786 28.3124 13.9207 28.7973 13.9207 29.9167C13.9207 31.1533 13.6269 31.6547 13.0044 31.8384L12.7452 31.855H12.1227V27.995ZM47.8913 32.5741V28.7138C47.8913 28.1624 47.8221 27.9953 47.4072 27.9953C46.681 27.9953 46.3872 28.4798 46.37 28.4967L46.3529 28.5136V32.5744H44.8142V28.7141C44.8142 28.1627 44.745 27.9956 44.33 27.9956C43.6038 27.9956 43.31 28.4801 43.2929 28.497L43.2757 28.5138V32.5747H41.7545V28.3967C41.7545 28.0458 41.3915 27.7116 40.9937 27.511C41.3049 27.4276 42.1691 27.1767 42.2212 27.1601C42.3941 27.227 42.809 27.4107 42.9299 27.5778L42.9817 27.6447L43.0508 27.5947C43.0508 27.5947 43.7424 27.177 44.6413 27.177C45.2983 27.177 45.765 27.2938 46.0417 27.5447L46.0934 27.5781L46.1451 27.5616C46.7155 27.311 47.2343 27.1773 47.701 27.1773C48.9456 27.1773 49.3951 27.6618 49.3951 28.1133V32.5753H47.891L47.8913 32.5741ZM30.5862 29.9504C30.5862 31.3541 30.9837 31.8721 31.8308 31.8721C32.4704 31.8721 32.7988 31.7553 32.92 31.6216C33.0237 31.6716 33.6287 31.9724 33.8017 32.0561C33.577 32.2398 32.8854 32.7078 31.7962 32.7078C29.9117 32.7078 28.9266 31.7553 28.9266 29.9673C28.9266 28.1624 29.912 27.2267 31.7962 27.2267C32.8854 27.2267 33.577 27.6947 33.8017 27.8784C33.6287 27.9618 33.0237 28.2627 32.92 28.313C32.7991 28.1793 32.4879 28.0624 31.8483 28.0624C30.9837 28.029 30.5862 28.5301 30.5862 29.9504ZM37.2766 27.193C35.565 27.193 34.5279 28.2124 34.5279 29.9336C34.5279 31.6547 35.5479 32.6744 37.2766 32.6744C38.9883 32.6744 39.9908 31.655 39.9908 29.9338C40.008 28.2293 38.9883 27.193 37.2766 27.193ZM37.2766 31.8053C36.5333 31.8053 36.2049 31.3541 36.2049 29.9504C36.2049 28.5467 36.5333 28.0956 37.2766 28.0956C38.0028 28.0956 38.3138 28.5301 38.3138 29.9504C38.3309 31.371 38.02 31.8053 37.2766 31.8053Z" fill="white"/>
</g>
<defs>
<clipPath id="clip0_150_1000">
<rect width="40" height="6" fill="white" transform="translate(10 27)"/>
</clipPath>
</defs>
</svg>
